<svg width="1920" height="772" viewBox="0 0 1920 772" fill="none" xmlns="http://www.w3.org/2000/svg">
<path d="M-20.048 395.717L129.014 400.307C156.221 401.145 174.663 428.323 165.39 453.915L144.147 512.542C134.62 538.835 154.326 566.539 182.29 566.165L229.538 565.532C258.392 565.146 278.149 594.509 266.922 621.092L224.955 720.458" stroke="url(#paint0_linear_920_10812)" stroke-opacity="0.2"/>
<path d="M-26.2649 399.787L122.797 404.377C150.004 405.215 168.446 432.394 159.173 457.985L137.93 516.612C128.403 542.905 148.109 570.61 176.073 570.235L223.321 569.603C252.175 569.216 271.932 598.579 260.705 625.162L218.738 724.528" stroke="url(#paint1_linear_920_10812)" stroke-opacity="0.2"/>
<path d="M-32.4817 403.858L116.58 408.449C143.787 409.287 162.229 436.465 152.956 462.057L131.713 520.683C122.186 546.977 141.892 574.681 169.856 574.306L217.104 573.674C245.958 573.287 265.715 602.65 254.488 629.233L212.521 728.599" stroke="url(#paint2_linear_920_10812)" stroke-opacity="0.2"/>
<path d="M-38.6987 407.928L110.363 412.519C137.57 413.357 156.012 440.535 146.74 466.127L125.496 524.753C115.969 551.047 135.675 578.751 163.639 578.377L210.887 577.744C239.741 577.358 259.498 606.721 248.271 633.303L206.304 732.67" stroke="url(#paint3_linear_920_10812)" stroke-opacity="0.2"/>
<path d="M-44.9155 411.999L104.147 416.589C131.354 417.427 149.796 444.606 140.523 470.197L119.28 528.824C109.752 555.117 129.458 582.821 157.422 582.447L204.67 581.814C233.524 581.428 253.281 610.791 242.054 637.374L200.087 736.74" stroke="url(#paint4_linear_920_10812)" stroke-opacity="0.2"/>
<path d="M-51.1324 416.069L97.9297 420.66C125.137 421.498 143.579 448.676 134.306 474.268L113.063 532.894C103.535 559.188 123.242 586.892 151.206 586.517L198.453 585.885C227.307 585.498 247.064 614.861 235.837 641.444L193.87 740.81" stroke="url(#paint5_linear_920_10812)" stroke-opacity="0.2"/>
<path d="M-57.3494 420.14L91.7128 424.731C118.92 425.569 137.362 452.747 128.089 478.339L106.846 536.965C97.3184 563.259 117.025 590.963 144.989 590.589L192.236 589.956C221.09 589.57 240.848 618.933 229.62 645.515L187.653 744.881" stroke="url(#paint6_linear_920_10812)" stroke-opacity="0.2"/>
<path d="M-63.5662 424.211L85.4959 428.801C112.703 429.639 131.145 456.818 121.872 482.409L100.629 541.036C91.1016 567.329 110.808 595.033 138.772 594.659L186.02 594.026C214.873 593.64 234.631 623.003 223.403 649.586L181.436 748.952" stroke="url(#paint7_linear_920_10812)" stroke-opacity="0.2"/>
<path d="M-69.7831 428.281L79.279 432.872C106.486 433.709 124.928 460.888 115.655 486.479L94.412 545.106C84.8846 571.4 104.591 599.104 132.555 598.729L179.803 598.097C208.656 597.71 228.414 627.073 217.187 653.656L175.219 753.022" stroke="url(#paint8_linear_920_10812)" stroke-opacity="0.2"/>
<path d="M-76 432.352L73.0621 436.943C100.269 437.781 118.711 464.959 109.438 490.551L88.1951 549.177C78.6678 575.471 98.374 603.175 126.338 602.801L173.586 602.168C202.44 601.782 222.197 631.144 210.97 657.727L169.002 757.093" stroke="url(#paint9_linear_920_10812)" stroke-opacity="0.2"/>
<path d="M397.75 248.209C397.462 248.209 397.169 248.162 396.886 248.063C395.835 247.696 395.133 246.707 395.133 245.593V226.796H382.05C380.606 226.796 379.433 225.624 379.433 224.179C379.433 222.735 380.606 221.563 382.05 221.563H397.75C399.194 221.563 400.367 222.735 400.367 224.179V238.089L412.707 222.552C413.204 221.924 413.963 221.563 414.758 221.563H429.15C430.594 221.563 431.767 220.385 431.767 218.946V171.849C431.767 170.41 430.594 169.233 429.15 169.233H350.65C349.206 169.233 348.033 170.41 348.033 171.849V218.946C348.033 220.385 349.206 221.563 350.65 221.563H361.117C362.561 221.563 363.733 222.735 363.733 224.179C363.733 225.624 362.561 226.796 361.117 226.796H350.65C346.322 226.796 342.8 223.274 342.8 218.946V171.849C342.8 167.522 346.322 164 350.65 164H429.15C433.478 164 437 167.522 437 171.849V218.946C437 223.274 433.478 226.796 429.15 226.796H416.02L399.796 247.215C399.294 247.853 398.53 248.209 397.75 248.209Z" fill="#035AE0" fill-opacity="0.1"/>
<path d="M371.583 252.94V258.173C377.356 258.173 382.05 262.867 382.05 268.639C382.05 274.411 377.356 279.105 371.583 279.105V284.338C380.239 284.338 387.283 277.294 387.283 268.639C387.283 259.983 380.239 252.94 371.583 252.94Z" fill="#035AE0" fill-opacity="0.1"/>
<path d="M311.018 287.305L313.556 314.176L305.607 315.772L305.46 315.914L301.069 287.3H295.784L300.352 316.986C300.98 319.346 303.137 321 305.596 321C305.936 321 306.287 320.969 306.632 320.895L314.582 319.299C315.963 319.027 317.141 318.232 317.91 317.06C318.68 315.887 318.941 314.49 318.695 313.417L316.262 287.3L311.018 287.305Z" fill="#035AE0" fill-opacity="0.1"/>
<path d="M319.25 252.961C317.806 252.961 316.633 251.789 316.633 250.344C316.633 248.9 317.806 247.728 319.25 247.728C332.626 247.728 346.578 242.652 359.594 233.044C360.761 232.191 362.394 232.437 363.252 233.593C364.11 234.76 363.864 236.393 362.702 237.251C348.782 247.529 333.752 252.961 319.25 252.961Z" fill="#035AE0" fill-opacity="0.1"/>
<path d="M371.583 313.7C370.877 313.7 370.165 313.412 369.652 312.847C369.438 312.617 348.002 289.571 319.056 289.571H292.429C285.809 289.571 280 283.736 280 277.08V260.062C280 253.364 285.694 247.707 292.429 247.707L308.783 247.728C310.233 247.728 311.4 248.905 311.4 250.349C311.4 251.789 310.228 252.961 308.783 252.961L292.429 252.94C288.53 252.94 285.233 256.2 285.233 260.062V277.08C285.233 280.879 288.666 284.338 292.429 284.338H319.051C350.352 284.338 372.583 308.3 373.514 309.32C374.488 310.388 374.415 312.041 373.347 313.014C372.845 313.47 372.217 313.7 371.583 313.7Z" fill="#035AE0" fill-opacity="0.1"/>
<path d="M321.867 250.538H316.633V286.74H321.867V250.538Z" fill="#035AE0" fill-opacity="0.1"/>
<path d="M371.583 315.736C370.139 315.736 368.967 314.563 368.967 313.119V224.158C368.967 222.714 370.139 221.542 371.583 221.542C373.028 221.542 374.2 222.714 374.2 224.158V313.119C374.2 314.563 373.028 315.736 371.583 315.736Z" fill="#035AE0" fill-opacity="0.1"/>
<path d="M298.317 273.893H293.083C291.639 273.893 290.467 272.72 290.467 271.276C290.467 269.832 291.639 268.66 293.083 268.66H298.317C299.761 268.66 300.933 269.832 300.933 271.276C300.933 272.72 299.761 273.893 298.317 273.893Z" fill="#035AE0" fill-opacity="0.1"/>
<path d="M298.317 263.427H293.083C291.639 263.427 290.467 262.255 290.467 260.81C290.467 259.366 291.639 258.194 293.083 258.194H298.317C299.761 258.194 300.933 259.366 300.933 260.81C300.933 262.255 299.761 263.427 298.317 263.427Z" fill="#035AE0" fill-opacity="0.1"/>
<path d="M374.2 216.33C373.598 216.33 372.991 216.126 372.499 215.702C371.4 214.76 371.275 213.106 372.217 212.013L403.617 175.382C404.564 174.283 406.212 174.162 407.306 175.094C408.405 176.036 408.531 177.689 407.589 178.783L376.189 215.414C375.671 216.016 374.938 216.33 374.2 216.33Z" fill="#035AE0" fill-opacity="0.1"/>
<path d="M402.983 216.33C400.623 216.33 395.133 215.309 395.133 205.864C395.133 196.758 400.053 195.398 402.983 195.398C405.914 195.398 410.833 196.758 410.833 205.864C410.833 215.309 405.344 216.33 402.983 216.33ZM402.983 200.631C402.005 200.631 400.367 200.631 400.367 205.864C400.367 211.097 402.266 211.097 402.983 211.097C403.7 211.097 405.6 211.097 405.6 205.864C405.6 200.631 403.962 200.631 402.983 200.631Z" fill="#035AE0" fill-opacity="0.1"/>
<path d="M376.817 195.398C374.456 195.398 368.967 194.377 368.967 184.932C368.967 175.827 373.886 174.466 376.817 174.466C379.747 174.466 384.667 175.827 384.667 184.932C384.667 194.377 379.177 195.398 376.817 195.398ZM376.817 179.699C375.838 179.699 374.2 179.699 374.2 184.932C374.2 190.165 376.1 190.165 376.817 190.165C377.534 190.165 379.433 190.165 379.433 184.932C379.433 179.699 377.795 179.699 376.817 179.699Z" fill="#035AE0" fill-opacity="0.1"/>
<path d="M1618.54 115.963L1764.36 92.2479C1791.23 87.8783 1814.52 111.038 1810.3 137.929L1800.82 198.346C1796.49 225.975 1821.12 249.409 1848.5 243.705L1893.64 234.3C1921.89 228.414 1946.89 253.467 1940.94 281.704L1918.95 386.121" stroke="url(#paint10_linear_920_10812)" stroke-opacity="0.2"/>
<path d="M1614.04 120.347L1759.86 96.6316C1786.72 92.2621 1810.01 115.422 1805.8 142.313L1796.32 202.73C1791.98 230.358 1816.61 253.793 1843.99 248.089L1889.14 238.683C1917.39 232.798 1942.38 257.851 1936.44 286.087L1914.44 390.504" stroke="url(#paint11_linear_920_10812)" stroke-opacity="0.2"/>
<path d="M1609.53 124.73L1755.35 101.014C1782.22 96.6449 1805.51 119.805 1801.29 146.695L1791.81 207.113C1787.48 234.741 1812.11 258.176 1839.49 252.472L1884.63 243.066C1912.88 237.181 1937.88 262.234 1931.93 290.47L1909.94 394.887" stroke="url(#paint12_linear_920_10812)" stroke-opacity="0.2"/>
<path d="M1605.03 129.114L1750.85 105.398C1777.71 101.029 1801 124.188 1796.79 151.079L1787.31 211.496C1782.97 239.125 1807.6 262.559 1834.98 256.855L1880.13 247.45C1908.38 241.564 1933.37 266.617 1927.43 294.854L1905.43 399.271" stroke="url(#paint13_linear_920_10812)" stroke-opacity="0.2"/>
<path d="M1600.52 133.496L1746.34 109.781C1773.21 105.412 1796.5 128.571 1792.28 155.462L1782.8 215.879C1778.47 243.508 1803.1 266.942 1830.48 261.238L1875.62 251.833C1903.87 245.947 1928.87 271 1922.92 299.237L1900.93 403.654" stroke="url(#paint14_linear_920_10812)" stroke-opacity="0.2"/>
<path d="M1596.02 137.88L1741.84 114.165C1768.7 109.795 1791.99 132.955 1787.78 159.846L1778.3 220.263C1773.96 247.892 1798.59 271.326 1825.97 265.622L1871.12 256.217C1899.37 250.331 1924.36 275.384 1918.42 303.621L1896.42 408.038" stroke="url(#paint15_linear_920_10812)" stroke-opacity="0.2"/>
<path d="M1591.51 142.263L1737.33 118.548C1764.2 114.178 1787.49 137.338 1783.27 164.229L1773.79 224.646C1769.46 252.274 1794.09 275.709 1821.47 270.005L1866.61 260.599C1894.86 254.714 1919.86 279.767 1913.91 308.004L1891.92 412.42" stroke="url(#paint16_linear_920_10812)" stroke-opacity="0.2"/>
<path d="M1587.01 146.647L1732.83 122.931C1759.7 118.562 1782.98 141.722 1778.77 168.612L1769.29 229.03C1764.95 256.658 1789.58 280.093 1816.96 274.389L1862.11 264.983C1890.36 259.098 1915.35 284.151 1909.41 312.387L1887.41 416.804" stroke="url(#paint17_linear_920_10812)" stroke-opacity="0.2"/>
<path d="M1582.5 151.03L1728.32 127.314C1755.19 122.945 1778.48 146.104 1774.26 172.995L1764.78 233.413C1760.45 261.041 1785.08 284.475 1812.46 278.771L1857.6 269.366C1885.85 263.48 1910.85 288.533 1904.9 316.77L1882.91 421.187" stroke="url(#paint18_linear_920_10812)" stroke-opacity="0.2"/>
<path d="M1578 155.413L1723.82 131.698C1750.69 127.329 1773.98 150.488 1769.76 177.379L1760.28 237.796C1755.94 265.425 1780.57 288.859 1807.95 283.155L1853.1 273.75C1881.35 267.864 1906.35 292.917 1900.4 321.154L1878.4 425.571" stroke="url(#paint19_linear_920_10812)" stroke-opacity="0.2"/>
<path d="M1674.82 583.226V529.339C1674.82 522.483 1669.24 516.903 1662.39 516.903H1641.66V512.758C1641.66 505.902 1636.08 500.323 1629.23 500.323C1627.59 500.323 1626.03 500.658 1624.6 501.235C1623.17 495.949 1618.38 492.032 1612.65 492.032C1606.91 492.032 1602.12 495.949 1600.69 501.235C1599.26 500.658 1597.7 500.323 1596.06 500.323C1592.87 500.323 1589.98 501.57 1587.77 503.556C1585.57 501.566 1582.68 500.323 1579.48 500.323C1572.63 500.323 1567.05 505.902 1567.05 512.758V516.903H1554.61C1547.76 516.903 1542.18 522.483 1542.18 529.339V583.226C1542.18 590.082 1547.76 595.661 1554.61 595.661H1562.9V602.434C1562.9 606.779 1563.93 611.127 1565.87 615.015L1575.34 633.946V691H1583.63V631.989L1573.29 611.309C1571.92 608.565 1571.19 605.498 1571.19 602.434V595.661H1632.74L1635.9 576.705C1636.47 573.277 1639.4 570.79 1642.88 570.79C1646.78 570.79 1649.95 573.966 1649.95 577.866V603.831C1649.95 608.316 1648.41 612.719 1645.6 616.221L1633.37 631.513V691H1641.66V634.423L1652.08 621.399C1656.05 616.429 1658.24 610.19 1658.24 603.831V595.661H1662.39C1669.24 595.661 1674.82 590.082 1674.82 583.226ZM1625.08 512.758C1625.08 510.47 1626.94 508.613 1629.23 508.613C1631.51 508.613 1633.37 510.47 1633.37 512.758V516.903H1625.08V512.758ZM1608.5 504.468C1608.5 502.18 1610.36 500.323 1612.65 500.323C1614.93 500.323 1616.79 502.18 1616.79 504.468V516.903H1608.5V504.468ZM1591.92 512.758C1591.92 510.47 1593.78 508.613 1596.06 508.613C1598.35 508.613 1600.21 510.47 1600.21 512.758V516.903H1591.92V512.758ZM1575.34 512.758C1575.34 510.47 1577.2 508.613 1579.48 508.613C1581.77 508.613 1583.63 510.47 1583.63 512.758V516.903H1575.34V512.758ZM1666.53 583.226C1666.53 585.514 1664.68 587.371 1662.39 587.371H1658.24V577.866C1658.24 569.393 1651.35 562.5 1642.88 562.5C1635.34 562.5 1628.96 567.901 1627.72 575.342L1625.71 587.371H1554.61C1552.32 587.371 1550.47 585.514 1550.47 583.226V541.774H1666.53V583.226ZM1666.53 533.484H1550.47V529.339C1550.47 527.051 1552.32 525.194 1554.61 525.194H1662.39C1664.68 525.194 1666.53 527.051 1666.53 529.339V533.484Z" fill="#035AE0" fill-opacity="0.1"/>
<path d="M1571.19 583.226C1573.3 583.226 1575.42 582.795 1577.41 581.97C1579.41 582.795 1581.52 583.226 1583.63 583.226C1592.77 583.226 1600.21 575.789 1600.21 566.645C1600.21 557.501 1592.77 550.065 1583.63 550.065C1581.52 550.065 1579.41 550.496 1577.41 551.32C1575.42 550.496 1573.3 550.065 1571.19 550.065C1562.05 550.065 1554.61 557.501 1554.61 566.645C1554.61 575.789 1562.05 583.226 1571.19 583.226ZM1571.19 558.355C1572.62 558.355 1574 558.744 1575.32 559.515L1577.41 560.73L1579.5 559.515C1580.82 558.744 1582.21 558.355 1583.63 558.355C1588.2 558.355 1591.92 562.073 1591.92 566.645C1591.92 571.217 1588.2 574.935 1583.63 574.935C1582.21 574.935 1580.82 574.546 1579.5 573.775L1577.41 572.56L1575.32 573.775C1574 574.546 1572.62 574.935 1571.19 574.935C1566.62 574.935 1562.9 571.217 1562.9 566.645C1562.9 562.073 1566.62 558.355 1571.19 558.355Z" fill="#035AE0" fill-opacity="0.1"/>
<path d="M1608.5 475.452C1619.93 475.452 1629.23 466.154 1629.23 454.726C1629.23 443.298 1619.93 434 1608.5 434C1597.07 434 1587.77 443.298 1587.77 454.726C1587.77 466.154 1597.07 475.452 1608.5 475.452ZM1608.5 442.29C1615.36 442.29 1620.94 447.87 1620.94 454.726C1620.94 461.582 1615.36 467.161 1608.5 467.161C1601.64 467.161 1596.06 461.582 1596.06 454.726C1596.06 447.87 1601.64 442.29 1608.5 442.29Z" fill="#035AE0" fill-opacity="0.1"/>
<path d="M1532.29 507.017C1537.83 507.017 1543.04 504.857 1546.94 500.944C1550.86 497.035 1553.02 491.829 1553.02 486.291C1553.02 480.753 1550.86 475.551 1546.94 471.638C1543.03 467.725 1537.83 465.565 1532.29 465.565C1526.75 465.565 1521.55 467.725 1517.64 471.638C1513.73 475.547 1511.57 480.753 1511.57 486.291C1511.57 491.829 1513.73 497.035 1517.64 500.944C1521.55 504.862 1526.75 507.017 1532.29 507.017ZM1523.5 477.499C1525.85 475.153 1528.97 473.856 1532.29 473.856C1535.62 473.856 1538.74 475.153 1541.08 477.499C1543.43 479.845 1544.73 482.967 1544.73 486.291C1544.73 489.616 1543.43 492.737 1541.08 495.083C1536.39 499.78 1528.2 499.78 1523.5 495.083C1521.15 492.737 1519.86 489.616 1519.86 486.291C1519.86 482.971 1521.15 479.85 1523.5 477.499Z" fill="#035AE0" fill-opacity="0.1"/>
<path d="M1521.45 562.5C1521.45 551.072 1512.15 541.774 1500.73 541.774C1489.3 541.774 1480 551.072 1480 562.5C1480 573.928 1489.3 583.226 1500.73 583.226C1512.15 583.226 1521.45 573.928 1521.45 562.5ZM1500.73 574.935C1493.87 574.935 1488.29 569.356 1488.29 562.5C1488.29 555.644 1493.87 550.065 1500.73 550.065C1507.58 550.065 1513.16 555.644 1513.16 562.5C1513.16 569.356 1507.58 574.935 1500.73 574.935Z" fill="#035AE0" fill-opacity="0.1"/>
<path d="M1532.29 617.983C1526.75 617.983 1521.55 620.143 1517.64 624.056C1513.73 627.969 1511.57 633.171 1511.57 638.709C1511.57 644.247 1513.73 649.453 1517.64 653.362C1521.55 657.275 1526.75 659.435 1532.29 659.435C1537.83 659.435 1543.04 657.275 1546.94 653.362C1550.86 649.453 1553.02 644.247 1553.02 638.709C1553.02 633.171 1550.86 627.965 1546.94 624.056C1543.04 620.138 1537.83 617.983 1532.29 617.983ZM1541.08 647.501C1536.39 652.197 1528.2 652.197 1523.5 647.501C1521.15 645.154 1519.86 642.033 1519.86 638.709C1519.86 635.384 1521.15 632.263 1523.5 629.917C1525.85 627.571 1528.97 626.273 1532.29 626.273C1535.62 626.273 1538.74 627.571 1541.08 629.917C1543.43 632.263 1544.73 635.384 1544.73 638.709C1544.73 642.033 1543.43 645.15 1541.08 647.501Z" fill="#035AE0" fill-opacity="0.1"/>
<path d="M1684.71 617.983C1679.17 617.983 1673.96 620.143 1670.06 624.056C1666.14 627.965 1663.98 633.171 1663.98 638.709C1663.98 644.247 1666.14 649.449 1670.06 653.362C1673.97 657.275 1679.17 659.435 1684.71 659.435C1690.25 659.435 1695.45 657.275 1699.36 653.362C1703.27 649.453 1705.43 644.247 1705.43 638.709C1705.43 633.171 1703.27 627.965 1699.36 624.056C1695.45 620.138 1690.25 617.983 1684.71 617.983ZM1693.5 647.501C1688.8 652.197 1680.61 652.197 1675.92 647.501C1673.57 645.154 1672.27 642.033 1672.27 638.709C1672.27 635.384 1673.57 632.263 1675.92 629.917C1678.26 627.571 1681.38 626.273 1684.71 626.273C1688.03 626.273 1691.15 627.571 1693.5 629.917C1695.85 632.263 1697.14 635.384 1697.14 638.709C1697.14 642.033 1695.85 645.15 1693.5 647.501Z" fill="#035AE0" fill-opacity="0.1"/>
<path d="M1716.27 541.774C1704.85 541.774 1695.55 551.072 1695.55 562.5C1695.55 573.928 1704.85 583.226 1716.27 583.226C1727.7 583.226 1737 573.928 1737 562.5C1737 551.072 1727.7 541.774 1716.27 541.774ZM1716.27 574.935C1709.42 574.935 1703.84 569.356 1703.84 562.5C1703.84 555.644 1709.42 550.065 1716.27 550.065C1723.13 550.065 1728.71 555.644 1728.71 562.5C1728.71 569.356 1723.13 574.935 1716.27 574.935Z" fill="#035AE0" fill-opacity="0.1"/>
<path d="M1684.71 507.017C1690.25 507.017 1695.45 504.857 1699.36 500.944C1703.27 497.031 1705.43 491.829 1705.43 486.291C1705.43 480.753 1703.27 475.547 1699.36 471.638C1695.45 467.725 1690.25 465.565 1684.71 465.565C1679.17 465.565 1673.96 467.725 1670.06 471.638C1666.14 475.547 1663.98 480.753 1663.98 486.291C1663.98 491.829 1666.14 497.035 1670.06 500.944C1673.96 504.862 1679.17 507.017 1684.71 507.017ZM1675.92 477.499C1678.26 475.153 1681.38 473.856 1684.71 473.856C1688.03 473.856 1691.15 475.153 1693.5 477.499C1695.85 479.845 1697.14 482.967 1697.14 486.291C1697.14 489.616 1695.85 492.737 1693.5 495.083C1688.8 499.78 1680.61 499.78 1675.92 495.083C1673.57 492.737 1672.27 489.616 1672.27 486.291C1672.27 482.971 1673.57 479.85 1675.92 477.499Z" fill="#035AE0" fill-opacity="0.1"/>
<path d="M1577.2 470.865L1573.49 463.45L1565.2 467.596L1568.91 475.011L1577.2 470.865Z" fill="#035AE0" fill-opacity="0.1"/>
<path d="M1521.57 519.849L1513.71 517.225L1510.78 526.018L1518.64 528.641L1521.57 519.849Z" fill="#035AE0" fill-opacity="0.1"/>
<path d="M1521.01 602.09L1516.87 593.801L1509.45 597.508L1513.6 605.798L1521.01 602.09Z" fill="#035AE0" fill-opacity="0.1"/>
<path d="M1695.44 605.126L1703.3 607.749L1706.23 598.957L1698.37 596.333L1695.44 605.126Z" fill="#035AE0" fill-opacity="0.1"/>
<path d="M1695.98 522.909L1700.13 531.198L1707.54 527.491L1703.4 519.202L1695.98 522.909Z" fill="#035AE0" fill-opacity="0.1"/>
<path d="M1653.77 467.687L1644.98 464.757L1642.36 472.618L1651.15 475.548L1653.77 467.687Z" fill="#035AE0" fill-opacity="0.1"/>
<defs>
<linearGradient id="paint0_linear_920_10812" x1="49.9899" y1="349.858" x2="272.333" y2="689.436" gradientUnits="userSpaceOnUse">
<stop stop-color="#035AE0" stop-opacity="0"/>
<stop offset="0.479167" stop-color="#035AE0"/>
<stop offset="1" stop-color="#035AE0" stop-opacity="0"/>
</linearGradient>
<linearGradient id="paint1_linear_920_10812" x1="43.773" y1="353.929" x2="266.116" y2="693.506" gradientUnits="userSpaceOnUse">
<stop stop-color="#035AE0" stop-opacity="0"/>
<stop offset="0.479167" stop-color="#035AE0"/>
<stop offset="1" stop-color="#035AE0" stop-opacity="0"/>
</linearGradient>
<linearGradient id="paint2_linear_920_10812" x1="37.5561" y1="358" x2="259.899" y2="697.577" gradientUnits="userSpaceOnUse">
<stop stop-color="#035AE0" stop-opacity="0"/>
<stop offset="0.479167" stop-color="#035AE0"/>
<stop offset="1" stop-color="#035AE0" stop-opacity="0"/>
</linearGradient>
<linearGradient id="paint3_linear_920_10812" x1="31.3392" y1="362.07" x2="253.682" y2="701.648" gradientUnits="userSpaceOnUse">
<stop stop-color="#035AE0" stop-opacity="0"/>
<stop offset="0.479167" stop-color="#035AE0"/>
<stop offset="1" stop-color="#035AE0" stop-opacity="0"/>
</linearGradient>
<linearGradient id="paint4_linear_920_10812" x1="25.1223" y1="366.141" x2="247.466" y2="705.718" gradientUnits="userSpaceOnUse">
<stop stop-color="#035AE0" stop-opacity="0"/>
<stop offset="0.479167" stop-color="#035AE0"/>
<stop offset="1" stop-color="#035AE0" stop-opacity="0"/>
</linearGradient>
<linearGradient id="paint5_linear_920_10812" x1="18.9054" y1="370.211" x2="241.249" y2="709.788" gradientUnits="userSpaceOnUse">
<stop stop-color="#035AE0" stop-opacity="0"/>
<stop offset="0.479167" stop-color="#035AE0"/>
<stop offset="1" stop-color="#035AE0" stop-opacity="0"/>
</linearGradient>
<linearGradient id="paint6_linear_920_10812" x1="12.6885" y1="374.282" x2="235.032" y2="713.86" gradientUnits="userSpaceOnUse">
<stop stop-color="#035AE0" stop-opacity="0"/>
<stop offset="0.479167" stop-color="#035AE0"/>
<stop offset="1" stop-color="#035AE0" stop-opacity="0"/>
</linearGradient>
<linearGradient id="paint7_linear_920_10812" x1="6.47165" y1="378.352" x2="228.815" y2="717.93" gradientUnits="userSpaceOnUse">
<stop stop-color="#035AE0" stop-opacity="0"/>
<stop offset="0.479167" stop-color="#035AE0"/>
<stop offset="1" stop-color="#035AE0" stop-opacity="0"/>
</linearGradient>
<linearGradient id="paint8_linear_920_10812" x1="0.254734" y1="382.423" x2="222.598" y2="722" gradientUnits="userSpaceOnUse">
<stop stop-color="#035AE0" stop-opacity="0"/>
<stop offset="0.479167" stop-color="#035AE0"/>
<stop offset="1" stop-color="#035AE0" stop-opacity="0"/>
</linearGradient>
<linearGradient id="paint9_linear_920_10812" x1="-5.96212" y1="386.494" x2="216.381" y2="726.072" gradientUnits="userSpaceOnUse">
<stop stop-color="#035AE0" stop-opacity="0"/>
<stop offset="0.479167" stop-color="#035AE0"/>
<stop offset="1" stop-color="#035AE0" stop-opacity="0"/>
</linearGradient>
<linearGradient id="paint10_linear_920_10812" x1="1678.13" y1="57.9816" x2="1959.26" y2="346.898" gradientUnits="userSpaceOnUse">
<stop stop-color="#035AE0" stop-opacity="0"/>
<stop offset="0.479167" stop-color="#035AE0"/>
<stop offset="1" stop-color="#035AE0" stop-opacity="0"/>
</linearGradient>
<linearGradient id="paint11_linear_920_10812" x1="1673.63" y1="62.3654" x2="1954.75" y2="351.281" gradientUnits="userSpaceOnUse">
<stop stop-color="#035AE0" stop-opacity="0"/>
<stop offset="0.479167" stop-color="#035AE0"/>
<stop offset="1" stop-color="#035AE0" stop-opacity="0"/>
</linearGradient>
<linearGradient id="paint12_linear_920_10812" x1="1669.12" y1="66.7482" x2="1950.25" y2="355.664" gradientUnits="userSpaceOnUse">
<stop stop-color="#035AE0" stop-opacity="0"/>
<stop offset="0.479167" stop-color="#035AE0"/>
<stop offset="1" stop-color="#035AE0" stop-opacity="0"/>
</linearGradient>
<linearGradient id="paint13_linear_920_10812" x1="1664.62" y1="71.132" x2="1945.74" y2="360.048" gradientUnits="userSpaceOnUse">
<stop stop-color="#035AE0" stop-opacity="0"/>
<stop offset="0.479167" stop-color="#035AE0"/>
<stop offset="1" stop-color="#035AE0" stop-opacity="0"/>
</linearGradient>
<linearGradient id="paint14_linear_920_10812" x1="1660.11" y1="75.5148" x2="1941.24" y2="364.431" gradientUnits="userSpaceOnUse">
<stop stop-color="#035AE0" stop-opacity="0"/>
<stop offset="0.479167" stop-color="#035AE0"/>
<stop offset="1" stop-color="#035AE0" stop-opacity="0"/>
</linearGradient>
<linearGradient id="paint15_linear_920_10812" x1="1655.61" y1="79.8986" x2="1936.73" y2="368.815" gradientUnits="userSpaceOnUse">
<stop stop-color="#035AE0" stop-opacity="0"/>
<stop offset="0.479167" stop-color="#035AE0"/>
<stop offset="1" stop-color="#035AE0" stop-opacity="0"/>
</linearGradient>
<linearGradient id="paint16_linear_920_10812" x1="1651.1" y1="84.2815" x2="1932.23" y2="373.197" gradientUnits="userSpaceOnUse">
<stop stop-color="#035AE0" stop-opacity="0"/>
<stop offset="0.479167" stop-color="#035AE0"/>
<stop offset="1" stop-color="#035AE0" stop-opacity="0"/>
</linearGradient>
<linearGradient id="paint17_linear_920_10812" x1="1646.6" y1="88.6652" x2="1927.72" y2="377.581" gradientUnits="userSpaceOnUse">
<stop stop-color="#035AE0" stop-opacity="0"/>
<stop offset="0.479167" stop-color="#035AE0"/>
<stop offset="1" stop-color="#035AE0" stop-opacity="0"/>
</linearGradient>
<linearGradient id="paint18_linear_920_10812" x1="1642.09" y1="93.0481" x2="1923.22" y2="381.964" gradientUnits="userSpaceOnUse">
<stop stop-color="#035AE0" stop-opacity="0"/>
<stop offset="0.479167" stop-color="#035AE0"/>
<stop offset="1" stop-color="#035AE0" stop-opacity="0"/>
</linearGradient>
<linearGradient id="paint19_linear_920_10812" x1="1637.59" y1="97.4318" x2="1918.71" y2="386.348" gradientUnits="userSpaceOnUse">
<stop stop-color="#035AE0" stop-opacity="0"/>
<stop offset="0.479167" stop-color="#035AE0"/>
<stop offset="1" stop-color="#035AE0" stop-opacity="0"/>
</linearGradient>
</defs>
</svg>
