<svg width="735" height="507" viewBox="0 0 735 507" fill="none" xmlns="http://www.w3.org/2000/svg">
<path opacity="0.3" d="M620.682 275.413C616.035 314.588 589.19 308.059 584.957 353.599C583.46 369.868 594.92 380.043 600.599 394.135C606.898 409.696 604.626 423.679 596.159 434.343H129.567C119.242 429.446 109.382 424.223 100.812 417.966C89.0411 409.369 79.6969 398.814 74.9473 384.286C70.6624 371.119 67.3584 358.496 78.6128 348.539C84.7562 343.098 91.1578 338.963 96.6817 333.903C100.863 330.149 104.529 325.905 107.317 320.301C127.657 279.167 101.586 242.931 91.9838 201.797C91.0545 197.825 90.2285 193.744 89.5574 189.718C87.8021 179.38 86.9761 168.934 88.0086 158.705C88.9379 149.401 91.4675 140.26 96.2171 131.663C103.29 118.768 121.72 99.7249 141.544 103.37C156.413 106.091 165.808 121.108 179.231 126.549C196.164 133.404 214.956 127.909 227.656 117.843C252.333 98.2558 268.13 61.0398 310.309 64.4131C324.609 65.6102 334.263 77.4714 346.756 82.9124C363.999 90.4209 381.036 90.3665 397.504 83.0756C416.399 74.6965 429.409 59.081 448.046 50.1579C454.137 47.2198 460.746 44.6625 467.663 42.7038C482.635 38.4054 499 36.9364 514.436 40.2009C517.706 40.8901 520.803 41.7244 523.729 42.7038C575.303 59.4619 577.729 114.252 575.303 154.298C574.219 172.579 560.28 204.191 570.553 223.126C580.827 242.114 625.173 237.544 620.682 275.413Z" fill="#035AE0" fill-opacity="0.4"/>
<path d="M162.401 434.343H158.013L157.497 414.157H168.493L162.401 434.343Z" fill="#B8E5FF"/>
<path d="M237.413 414.157H248.409L247.893 434.343H243.505L237.413 414.157Z" fill="#B8E5FF"/>
<path d="M254.14 416.442H151.766V218.065H254.14V416.442Z" fill="#035AE0" fill-opacity="0.8"/>
<path d="M245.467 272.04H160.439V233.083H245.467V272.04Z" fill="#B8E5FF"/>
<path d="M208.606 252.561C208.606 255.826 206.076 258.546 202.979 258.546C199.829 258.546 197.3 255.826 197.3 252.561C197.3 249.242 199.829 246.576 202.979 246.576C206.076 246.576 208.606 249.242 208.606 252.561Z" fill="#035AE0" fill-opacity="0.8"/>
<path d="M245.467 315.186H160.439V276.229H245.467V315.186Z" fill="#B8E5FF"/>
<path d="M208.606 295.708C208.606 298.972 206.076 301.638 202.979 301.638C199.829 301.638 197.3 298.972 197.3 295.708C197.3 292.389 199.829 289.723 202.979 289.723C206.076 289.723 208.606 292.389 208.606 295.708Z" fill="#035AE0" fill-opacity="0.8"/>
<path d="M245.467 358.333H160.439V319.376H245.467V358.333Z" fill="#B8E5FF"/>
<path d="M208.606 338.855C208.606 342.119 206.076 344.785 202.979 344.785C199.829 344.785 197.3 342.119 197.3 338.855C197.3 335.536 199.829 332.87 202.979 332.87C206.076 332.87 208.606 335.536 208.606 338.855Z" fill="#035AE0" fill-opacity="0.8"/>
<path d="M245.467 401.48H160.439V362.522H245.467V401.48Z" fill="#B8E5FF"/>
<path d="M208.606 382.001C208.606 385.266 206.076 387.932 202.979 387.932C199.829 387.932 197.3 385.266 197.3 382.001C197.3 378.682 199.829 376.016 202.979 376.016C206.076 376.016 208.606 378.682 208.606 382.001Z" fill="#035AE0" fill-opacity="0.8"/>
<path d="M257.186 222.309H148.72V214.801H257.186V222.309Z" fill="#B8E5FF"/>
<path d="M189.143 83.076C187.904 79.485 190.485 74.8602 193.789 72.575C196.061 70.9971 198.642 70.0178 200.036 67.9502C199.881 70.6707 199.21 73.0103 197.506 75.5675C195.648 78.3968 192.808 81.2805 189.143 83.076Z" fill="#035AE0" fill-opacity="0.8"/>
<path d="M189.143 84.2731C189.608 82.3143 187.646 80.4644 186.355 79.3762C185.116 78.288 183.671 77.3631 182.586 76.1661C180.16 73.5544 180.057 68.4399 182.793 65.665C182.019 66.3724 183.258 68.712 183.619 69.3105C184.497 70.7251 185.839 71.8133 186.975 73.0103C189.659 75.894 190.124 80.1924 189.143 84.2731Z" fill="#B8E5FF"/>
<path d="M191.053 69.2559C192.034 67.8412 193.273 66.5898 193.996 65.0663C194.305 64.4134 195.286 61.965 194.512 61.4209C197.351 63.5429 197.661 68.4941 195.544 71.4867C194.564 72.8469 193.273 73.9895 192.137 75.2953C191.001 76.5467 189.195 78.7231 189.814 80.5186C188.523 76.7644 188.627 72.5748 191.053 69.2559Z" fill="#B8E5FF"/>
<path d="M188.833 80.0834C188.214 79.9202 187.594 79.0497 187.284 78.6144C186.768 77.6894 186.407 76.7101 186.252 75.7307C185.839 73.1734 186.613 70.6706 186.717 68.2222C186.768 66.3179 186.665 64.3591 186.045 62.618C185.736 61.7475 185.219 61.0401 184.755 60.224C184.703 60.1696 185.529 60.4416 185.581 60.4416C190.382 62.7812 191.414 67.5149 190.485 72.3573C190.227 73.8808 190.021 75.3498 189.556 76.8733C189.298 77.7983 188.575 79.1041 188.833 80.0834Z" fill="#035AE0" fill-opacity="0.8"/>
<path d="M195.545 92.924H185.581L182.277 81.8789H198.797L195.545 92.924Z" fill="#B8E5FF"/>
<path d="M196.009 93.7401H185.013L184.961 91.999H196.061L196.009 93.7401Z" fill="#035AE0" fill-opacity="0.8"/>
<path d="M199.107 83.1848H181.915L181.606 79.7026H199.416L199.107 83.1848Z" fill="#035AE0" fill-opacity="0.8"/>
<path d="M257.65 72.629L258.837 75.1863C259.302 76.1112 260.18 76.8185 261.161 76.9274L263.794 77.3626C266.323 77.7435 267.304 81.0081 265.497 82.858L263.587 84.8167C262.864 85.5785 262.555 86.6122 262.709 87.7004L263.174 90.4753C263.587 93.087 260.954 95.1001 258.734 93.8487L256.359 92.5429C255.43 92.0532 254.398 92.0532 253.52 92.5429L251.094 93.8487C248.874 95.1001 246.241 93.087 246.654 90.4753L247.118 87.7004C247.325 86.6122 246.964 85.5785 246.241 84.8167L244.331 82.858C242.524 81.0081 243.505 77.7435 246.034 77.3626L248.667 76.9274C249.7 76.8185 250.526 76.1112 250.99 75.1863L252.178 72.629C253.314 70.235 256.514 70.235 257.65 72.629Z" fill="#035AE0" fill-opacity="0.8"/>
<path d="M229.153 94.0121H218.208V51.4639H229.153V94.0121Z" fill="#035AE0" fill-opacity="0.8"/>
<path d="M235.09 94.0121H228.843V57.0137H235.09V94.0121Z" fill="#035AE0" fill-opacity="0.5"/>
<path d="M218.415 94.0121H209.225V66.3721H218.415V94.0121Z" fill="#B8E5FF"/>
<path opacity="0.7" d="M218.415 73.8264H209.225V70.6162H218.415V73.8264Z" fill="#035AE0" fill-opacity="0.8"/>
<path opacity="0.7" d="M218.415 90.6387H209.225V87.4829H218.415V90.6387Z" fill="#035AE0" fill-opacity="0.8"/>
<path d="M242.266 94.0123H234.573V54.5654H242.266V94.0123Z" fill="#035AE0" fill-opacity="0.8"/>
<path d="M240.252 84.1638H236.587V66.5352H240.252V84.1638Z" fill="#B8E5FF"/>
<path d="M250.371 103.207H256.824V119.748H250.371V103.207Z" fill="#035AE0" fill-opacity="0.8"/>
<path d="M246.137 101.738H261.006V106.472H246.137V101.738Z" fill="#035AE0" fill-opacity="0.8"/>
<path d="M185.994 103.207H192.447V119.748H185.994V103.207Z" fill="#035AE0" fill-opacity="0.8"/>
<path d="M181.76 101.738H196.629V106.472H181.76V101.738Z" fill="#035AE0" fill-opacity="0.8"/>
<path d="M170.661 93.5767H272.105V102.5H170.661V93.5767Z" fill="#B8E5FF"/>
<path d="M142.577 146.354L135.659 167.302C135.555 167.519 135.349 167.682 135.142 167.682H123.682C123.217 167.682 122.907 167.193 123.062 166.703L134.833 145.755C134.936 145.538 135.142 145.375 135.349 145.375H141.957C142.37 145.375 142.68 145.864 142.577 146.354Z" fill="#035AE0" fill-opacity="0.8"/>
<path d="M129.102 136.996H163.795L168.441 167.737H133.8L129.102 136.996Z" fill="#035AE0" fill-opacity="0.5"/>
<path d="M130.341 136.996H164.982L169.68 167.737H134.988L130.341 136.996Z" fill="#035AE0" fill-opacity="0.8"/>
<path d="M133.49 139.825H162.711L166.531 164.907H137.311L133.49 139.825Z" fill="white"/>
<path d="M138.395 144.667H159.252L161.626 160.065H140.718L138.395 144.667Z" fill="#035AE0" fill-opacity="0.8"/>
<path d="M194.667 157.127C194.667 161.044 192.55 164.472 189.453 166.213C189.384 166.25 189.315 166.268 189.246 166.268C187.956 166.975 186.51 167.356 184.961 167.356C181.915 167.356 179.231 165.941 177.476 163.656C177.303 163.475 177.166 163.293 177.063 163.112C175.875 161.425 175.204 159.358 175.204 157.127C175.204 152.067 178.766 147.823 183.361 147.007C183.533 147.007 183.688 146.989 183.826 146.952C184.204 146.916 184.583 146.898 184.961 146.898C189.814 146.898 193.893 150.707 194.564 155.658C194.598 155.876 194.615 156.093 194.615 156.311C194.65 156.565 194.667 156.837 194.667 157.127Z" fill="#035AE0" fill-opacity="0.8"/>
<path d="M183.206 157.78C182.277 159.358 181.089 160.881 179.799 162.078C179.076 162.731 178.302 163.275 177.476 163.656C177.303 163.475 177.166 163.294 177.062 163.112C178.25 162.568 179.282 161.643 180.212 160.664C181.502 159.304 182.638 157.726 183.464 155.985C184.29 154.135 184.651 152.013 184.342 150C184.238 149.075 183.98 148.204 183.567 147.388C183.498 147.243 183.43 147.116 183.361 147.007C183.533 147.007 183.688 146.989 183.825 146.953C183.929 147.17 184.032 147.352 184.135 147.497C185.684 150.816 184.961 154.733 183.206 157.78Z" fill="#B8E5FF"/>
<path d="M194.615 156.311C194.202 156.601 193.806 156.946 193.428 157.345C191.156 159.685 189.762 162.895 189.453 166.214C189.384 166.25 189.315 166.268 189.246 166.268C189.401 162.786 190.743 159.467 193.118 156.964C193.565 156.492 194.047 156.057 194.564 155.658C194.598 155.876 194.615 156.093 194.615 156.311Z" fill="#B8E5FF"/>
<path d="M189.04 176.551H195.493V193.092H189.04V176.551Z" fill="#035AE0" fill-opacity="0.8"/>
<path d="M184.858 175.028H199.726V179.761H184.858V175.028Z" fill="#035AE0" fill-opacity="0.8"/>
<path d="M124.662 176.551H131.116V193.092H124.662V176.551Z" fill="#035AE0" fill-opacity="0.8"/>
<path d="M120.481 175.028H135.349V179.761H120.481V175.028Z" fill="#035AE0" fill-opacity="0.8"/>
<path d="M109.381 166.866H210.826V175.789H109.381V166.866Z" fill="#B8E5FF"/>
<path d="M570.811 362.849C570.811 376.234 560.022 387.061 546.651 387.061C533.331 387.061 522.49 376.234 522.49 362.849C522.49 349.519 533.331 338.691 546.651 338.691C560.022 338.691 570.811 349.519 570.811 362.849Z" fill="#035AE0" fill-opacity="0.8"/>
<path d="M567.817 434.343H525.846L523.522 366.059H570.14L567.817 434.343Z" fill="#B8E5FF"/>
<path d="M573.754 370.63H520.941V361.87H573.754V370.63Z" fill="#035AE0" fill-opacity="0.8"/>
<path d="M548.612 342.935C551.555 342.391 554.446 341.847 557.337 341.194C565.029 345.003 570.398 352.784 570.811 361.87H535.809C536.016 359.095 536.274 356.375 536.79 353.654C537.513 350.335 538.494 347.071 539.784 343.915C542.727 343.806 545.67 343.425 548.612 342.935Z" fill="#B8E5FF"/>
<path d="M456.822 135.689H299.57V26H456.822V135.689Z" fill="#02A4FF"/>
<path d="M343.091 134.166L329.616 160.772C329.616 160.772 329.152 134.438 329.255 134.057L343.091 134.166Z" fill="#02A4FF"/>
<path d="M452.847 30.7881V130.902H303.545V30.7881H452.847Z" fill="white"/>
<path opacity="0.4" d="M452.847 112.783H326.467C324.764 112.783 323.421 111.369 323.421 109.573V30.7881H452.847V112.783Z" fill="#035AE0" fill-opacity="0.5"/>
<g opacity="0.8">
<path d="M452.847 106.2H333.746C332.766 106.2 331.991 105.383 331.991 104.35V30.7881H452.847V106.2Z" fill="white"/>
</g>
<g opacity="0.4">
<path d="M444.587 55.7077C444.432 55.9797 443.967 55.9797 443.864 55.7077C443.244 54.1842 443.761 52.0622 441.231 51.899C438.959 51.7358 436.688 51.7358 434.416 51.7358C429.804 51.627 425.21 51.5544 420.632 51.5182C420.529 56.2518 420.684 60.9854 420.994 65.719C421.045 66.2087 420.271 66.3175 420.013 65.9367C417.38 62.3456 414.386 59.0267 411.443 55.5989C411.288 55.3812 411.649 55.218 411.804 55.3812C414.85 57.9385 417.431 60.9854 419.806 64.0867C419.496 59.734 419.359 55.3812 419.393 51.0285C419.393 50.702 419.703 50.4844 420.013 50.4844C425.795 50.4844 431.628 50.5388 437.411 50.6476C439.321 50.702 442.212 50.2667 443.709 51.627C444.741 52.6607 445.154 54.4563 444.587 55.7077Z" fill="#035AE0"/>
<path d="M443.193 60.8221C442.934 62.2367 441.644 63.7602 439.785 63.4337C438.908 63.3249 438.391 62.7808 438.082 62.1279C437.772 61.4206 437.462 60.7132 437.152 60.0059C436.275 61.4206 434.623 63.4881 432.971 62.6176C432.506 62.3999 432.196 61.8558 431.99 61.3117C431.886 61.3662 431.835 61.475 431.783 61.5294C430.957 62.5632 429.821 63.7058 428.324 63.9234C426.827 64.0866 425.743 63.0528 425.278 61.9647C424.711 60.7132 424.762 59.2986 425.433 58.1016C425.433 58.0472 425.588 57.9928 425.691 57.9928C425.864 57.9928 426.036 57.9928 426.208 57.9928C426.466 58.0472 426.569 58.428 426.259 58.428C425.278 58.5369 425.743 60.6044 425.95 61.2029C426.259 62.2367 427.137 63.4337 428.582 62.944C429.667 62.5632 430.544 61.5838 431.164 60.7677C431.37 60.5137 431.542 60.2598 431.68 60.0059C431.577 59.1354 431.783 58.2648 432.196 57.4487C432.403 57.1222 433.074 57.231 433.126 57.6119C433.28 58.4825 433.074 59.353 432.713 60.1691C432.764 60.7132 432.971 61.6926 433.59 61.8558C434.313 62.1279 435.191 60.9853 435.552 60.55C436.034 59.9697 436.464 59.3711 436.843 58.7545C437.049 58.428 437.617 58.5913 437.772 58.8633C438.047 59.5162 438.323 60.1692 438.598 60.8221C438.856 61.3662 439.062 62.3455 439.837 62.5632C441.179 62.944 442.108 61.3117 442.78 60.6044C442.986 60.4412 443.244 60.6588 443.193 60.8221Z" fill="#035AE0"/>
<path d="M451.143 49.124C450.782 49.396 450.369 49.3416 449.956 49.2872C449.543 49.2328 449.181 49.124 448.82 48.9608C448.648 48.8882 448.493 48.7975 448.355 48.6887C448.304 48.9064 448.304 49.1784 448.2 49.396C448.045 49.8857 447.736 50.3754 447.271 50.7019C447.013 50.8651 446.703 51.0827 446.342 50.9739C446.084 50.9195 445.877 50.7563 445.774 50.5386C445.671 50.2666 445.671 49.9945 445.619 49.7225C445.585 49.3598 445.585 48.997 445.619 48.6343C445.619 47.9088 445.705 47.1834 445.877 46.4579C445.929 46.2947 446.239 46.3491 446.187 46.5123C446.049 47.2741 445.998 48.0358 446.032 48.7975C446.032 49.1965 446.066 49.5955 446.135 49.9945C446.187 50.1578 446.239 50.5386 446.497 50.5386C446.806 50.5386 447.116 50.2122 447.271 49.9945C447.443 49.7769 447.564 49.523 447.632 49.2328C447.839 48.7431 447.787 48.1446 447.684 47.6005H447.736C447.701 47.5643 447.684 47.528 447.684 47.4917C447.684 47.1108 448.407 47.1108 448.458 47.5461C448.51 47.927 448.923 48.2534 449.336 48.4167C449.646 48.5255 449.956 48.5799 450.265 48.5799C450.575 48.6343 450.885 48.6343 451.143 48.852C451.195 48.9608 451.195 49.0696 451.143 49.124Z" fill="#035AE0"/>
<path d="M410.41 84.0006C410.152 84.8167 409.171 85.0888 408.294 84.8711C407.519 84.6535 407.055 84.1094 406.745 83.5109C406.229 84.1638 405.712 84.8711 405.144 85.4696C404.68 85.9593 403.854 86.3946 403.183 85.9593C402.408 85.4696 402.615 84.2726 402.666 83.6197C402.666 83.5834 402.666 83.5653 402.666 83.5653C402.391 84.0006 402.064 84.3996 401.686 84.7623C400.808 85.6873 399.156 87.1019 397.607 86.5578C396.058 86.0137 396.11 83.8373 396.162 82.6403C396.213 81.008 396.729 79.3758 397.659 77.9067C397.865 77.5802 398.433 77.9067 398.227 78.2332C397.452 79.4846 397.039 80.8448 396.936 82.2595C396.902 82.9486 396.953 83.6378 397.091 84.327C397.194 84.8711 397.297 85.6873 398.072 85.8505C399.362 86.1225 400.808 84.5447 401.427 83.7829C402.305 82.8036 402.873 81.661 403.131 80.4639C403.286 79.9199 404.164 80.1375 404.06 80.6816C403.699 81.9874 403.441 83.5653 403.647 84.9255C403.802 85.8505 404.835 84.3814 405.041 84.1094C405.489 83.529 405.936 82.9486 406.383 82.3683C406.642 82.0418 407.158 82.0962 407.313 82.4771C407.519 82.9668 407.777 83.6197 408.294 83.9462C408.758 84.1638 409.481 84.1638 409.791 83.7829C409.997 83.5109 410.462 83.6741 410.41 84.0006Z" fill="#035AE0"/>
<path d="M418.361 85.8504C418.051 85.7416 417.793 85.4696 417.535 85.2519L416.864 84.6534C416.829 84.6897 416.812 84.7441 416.812 84.8166C416.554 85.3063 416.296 85.9048 415.986 86.3945C415.728 86.8298 414.902 86.5577 415.057 86.0681C415.263 85.524 415.573 84.9799 415.883 84.4358C415.951 84.2907 416.038 84.1275 416.141 83.9461C415.865 83.7285 415.607 83.4927 415.366 83.2388C414.403 82.3319 413.439 81.4251 412.475 80.5183C412.166 80.2462 412.63 79.8654 412.94 80.083L416.038 82.6403C416.21 82.7854 416.399 82.9486 416.605 83.13C416.605 83.0937 416.623 83.0393 416.657 82.9667C417.122 81.9873 417.535 80.8992 417.638 79.811C417.69 79.5389 418.154 79.5389 418.154 79.811C418.154 80.9536 417.844 82.0418 417.483 83.13C417.414 83.3113 417.328 83.4927 417.225 83.674C417.328 83.7466 417.431 83.8373 417.535 83.9461C417.776 84.1637 418.034 84.3814 418.309 84.599C418.516 84.7622 418.825 84.9799 418.98 85.2519C419.187 85.5784 418.825 86.0137 418.361 85.8504Z" fill="#035AE0"/>
<path d="M443.141 83.8919C441.902 84.1095 440.766 83.511 440.095 82.6404C439.527 83.7286 438.598 84.5992 437.101 84.4904C435.5 84.3271 434.674 83.3478 434.365 82.1508C433.539 83.3478 432.299 84.3815 430.699 84.4904C429.202 84.5992 428.376 83.6742 428.015 82.586C427.98 82.6586 427.946 82.713 427.911 82.7493C427.498 83.2389 426.776 84.0551 426.001 84.0007C424.143 83.8374 425.433 81.0082 426.001 80.3008C426.156 80.0832 426.517 80.3008 426.363 80.5185C426.001 81.0082 425.795 81.6067 425.743 82.2052C425.743 82.4228 425.691 82.9669 425.846 83.0757C426.001 83.1845 426.466 83.0757 426.724 82.9125C427.292 82.5316 427.602 81.8243 427.756 81.117C427.756 80.7905 427.774 80.4822 427.808 80.192C427.843 80.1557 427.86 80.1195 427.86 80.0832C427.963 79.5935 428.841 79.7023 428.789 80.192C428.686 81.5523 428.995 84.1639 431.37 83.4022C432.919 82.8581 433.952 81.3346 434.261 79.9744C434.416 79.4847 435.345 79.6479 435.294 80.1376C435.139 81.3346 435.449 83.5654 437.462 83.4566C438.856 83.3478 439.269 81.7699 439.527 80.8449C439.682 80.2464 440.766 80.4097 440.714 81.0082C440.663 82.0419 441.799 83.0757 443.089 82.8037C444.122 82.586 444.741 81.4978 444.896 80.6273C444.896 80.4097 445.206 80.3008 445.361 80.5185C446.29 81.9331 444.896 83.6742 443.141 83.8919Z" fill="#035AE0"/>
<path fill-rule="evenodd" clip-rule="evenodd" d="M392.187 51.8444C392.187 51.9532 392.032 52.1709 391.825 52.2253C384.649 53.0414 377.164 53.3679 369.833 52.987C369.833 53.0958 369.833 53.2046 369.833 53.3135C369.729 53.912 369.316 54.7281 368.439 54.5649C368.336 54.5649 368.284 54.4016 368.387 54.2928C368.852 53.912 369.007 53.4767 369.058 52.9326C365.909 52.715 362.708 52.3885 359.611 51.8988C359.146 51.8444 359.301 51.1915 359.714 51.2459C362.812 51.5724 365.909 51.8444 369.058 52.062C368.955 51.5724 368.8 51.0283 368.594 50.593C368.336 49.8857 367.974 49.2327 367.458 48.5798C367.2 48.3078 366.942 48.0357 366.632 47.7637C365.909 48.1264 365.186 48.4892 364.464 48.8519C364.257 48.9607 364.102 48.6887 364.309 48.5798C364.98 48.199 365.651 47.8181 366.374 47.4372C366.236 47.3284 366.098 47.2196 365.961 47.1108C366.012 47.274 365.806 47.3284 365.703 47.2196C365.599 47.002 365.599 46.8387 365.754 46.6211C365.806 46.5123 365.961 46.5123 366.064 46.5667C366.374 46.7299 366.684 46.9475 366.942 47.1108C374.272 43.0301 381.861 39.167 389.347 35.3039C389.605 35.1951 389.915 35.3039 389.967 35.5216C391.361 40.9081 392.032 46.349 392.187 51.8444ZM391.257 51.4635C391.102 46.349 390.38 41.2345 389.244 36.2289C381.861 39.8743 374.582 43.683 367.251 47.4372C367.613 47.7637 367.923 48.0901 368.181 48.471C368.749 49.1783 369.162 49.9945 369.471 50.865C369.626 51.2459 369.729 51.6812 369.781 52.1164C371.691 52.2253 373.55 52.3341 375.46 52.3341C380.726 52.3885 386.043 52.062 391.257 51.4635Z" fill="#035AE0"/>
<path d="M401.066 40.8539C400.705 41.1259 400.188 41.2891 399.724 41.5068C399.242 41.6882 398.777 41.8514 398.33 41.9965C397.401 42.3773 396.471 42.8126 395.439 43.0302C395.284 43.0847 395.232 42.867 395.336 42.8126C396.213 42.3229 397.246 41.9965 398.175 41.6156C398.622 41.398 399.087 41.2166 399.569 41.0715C399.982 40.9083 400.498 40.6362 400.963 40.6362C401.118 40.6362 401.169 40.745 401.066 40.8539Z" fill="#035AE0"/>
<path d="M404.835 39.8741C404.663 40.2006 404.473 40.527 404.267 40.8535C404.06 41.1437 403.837 41.4339 403.596 41.724C403.286 42.0505 403.08 42.3225 402.667 42.4858C402.46 42.5946 402.099 42.4314 402.254 42.2137C402.305 42.0505 402.357 41.8873 402.46 41.7784C402.563 41.6696 402.684 41.5427 402.821 41.3976C403.028 41.1799 403.217 40.9442 403.389 40.6903C403.561 40.4363 403.716 40.1824 403.854 39.9285C403.923 39.7834 403.992 39.6565 404.06 39.5477C403.647 39.5477 403.286 39.6021 402.925 39.6565L401.686 39.7109C401.273 39.7472 400.877 39.7834 400.498 39.8197C400.292 39.8197 400.085 39.8197 399.879 39.8197C399.672 39.8197 399.517 39.8741 399.311 39.8197C399.156 39.7653 399.104 39.5477 399.259 39.4932C399.466 39.33 399.775 39.33 399.982 39.2756C400.223 39.2393 400.464 39.2212 400.705 39.2212C401.187 39.1486 401.651 39.0942 402.099 39.058C402.58 38.9854 403.062 38.931 403.544 38.8947C403.906 38.8403 404.319 38.7859 404.628 38.9491C404.99 39.1668 404.99 39.5477 404.835 39.8741Z" fill="#035AE0"/>
<path d="M425.33 37.7524C424.504 38.1877 423.833 37.9157 423.059 37.6436C422.181 37.3172 421.923 38.2421 421.407 38.6774C420.374 39.5479 419.393 38.9494 418.722 38.1333C418.361 38.5686 417.741 38.8406 417.07 38.7318C416.296 38.6774 415.831 38.1333 415.573 37.5892C414.85 38.5142 413.818 39.6024 412.733 39.3847C411.959 39.2759 411.546 38.7318 411.34 38.1333C410.823 38.7862 410.049 39.2759 409.171 39.3847C408.552 39.3847 407.984 39.1127 407.726 38.623C407.364 37.9157 407.726 37.3716 407.984 36.7187C407.984 36.6642 408.087 36.6642 408.087 36.7187C408.036 37.2083 408.036 37.9157 408.345 38.2965C408.707 38.895 409.636 38.623 410.152 38.2965C410.823 37.8068 411.236 37.1539 411.494 36.3922C411.649 36.0113 412.372 36.1746 412.217 36.6098C412.062 37.0451 412.011 37.4804 412.217 37.9701C412.424 38.4598 412.992 38.7862 413.56 38.3509C414.282 37.8613 414.85 37.2083 415.366 36.501C415.625 36.229 416.141 36.3378 416.141 36.7187C416.141 37.1539 416.347 37.6436 416.864 37.8613C417.38 38.1333 418.154 37.9157 418.206 37.3172C418.257 36.9907 418.825 36.8275 419.032 37.1539C419.393 37.8613 420.116 38.7318 420.942 37.9701C421.303 37.6436 421.51 37.2628 421.923 36.9907C422.284 36.7731 422.697 36.7187 423.11 36.8275C423.523 36.9363 423.833 37.0995 424.194 37.2083C424.556 37.2627 424.917 37.3172 425.279 37.3716C425.485 37.426 425.485 37.6436 425.33 37.7524Z" fill="#035AE0"/>
<path d="M426.931 42.2685C426.414 42.867 425.433 42.7038 424.659 42.5949C423.73 42.4317 422.8 42.0509 421.871 42.1597C420.89 42.2141 420.219 43.0302 419.238 43.139C418.774 43.139 418.257 43.0302 417.948 42.7038C416.864 43.4111 415.521 43.9552 414.282 43.3567C413.198 42.8126 413.043 41.4523 414.024 40.8538C414.385 40.6362 414.798 41.1259 414.489 41.3435C413.611 41.942 414.385 42.8126 415.263 42.867C416.244 42.9758 417.07 42.3773 417.741 41.8332C417.999 41.67 418.412 41.7244 418.464 42.0509C418.722 42.867 420.168 41.8332 420.529 41.67C421.148 41.3435 421.82 41.2891 422.491 41.3435C423.265 41.3979 423.936 41.6156 424.659 41.7244C425.382 41.8876 426.104 41.7244 426.776 41.942C426.931 41.942 426.982 42.1053 426.931 42.2685Z" fill="#035AE0"/>
</g>
<path d="M404.783 130.901H332.404C333.437 125.134 337.309 106.363 343.194 102.173C348.098 98.691 353.984 95.6984 361.934 94.5558C362.502 94.447 363.018 94.3926 363.586 94.3382C364.309 94.2838 365.032 94.2294 365.806 94.175C368.078 94.0661 370.452 94.0661 373.034 94.2294H373.137C373.653 94.2656 374.169 94.32 374.686 94.3926C375.15 94.447 375.615 94.5014 376.131 94.5558C388.934 96.4602 400.034 104.458 402.202 115.776C402.546 117.517 402.839 119.094 403.08 120.509C404.061 126.059 404.525 129.269 404.783 130.901Z" fill="#035AE0"/>
<path d="M380.726 130.901H362.554C362.089 125.787 360.85 109.518 360.695 106.689C360.385 100.704 360.592 97.6028 361.779 95.9705C362.244 95.372 362.812 94.9912 363.586 94.7735C364.36 94.5559 365.341 94.5015 366.529 94.5015C367.51 94.5559 368.594 94.6103 369.781 94.7191C370.435 94.7554 371.02 94.8098 371.536 94.8823C372.827 95.0456 373.86 95.2088 374.686 95.4264C375.615 95.6985 376.338 96.0249 376.854 96.4602C378.351 97.5484 378.661 99.2895 379.074 102.01C379.693 106.472 380.674 125.515 380.726 130.901Z" fill="#5585CB"/>
<path d="M375.563 96.1337H362.502V83.7827H375.563V96.1337Z" fill="#E79F8B"/>
<path d="M406.229 85.9594C405.971 81.4978 406.642 76.8186 408.758 72.9556C409.223 72.0306 410.359 71.1056 411.082 71.813C411.391 72.1394 411.391 72.6291 411.443 73.0644C411.495 76.5466 411.185 80.0288 410.514 83.4022C411.03 82.2596 412.424 81.6611 413.56 82.0419C414.695 82.4772 415.521 83.7286 415.418 85.0345C415.728 83.7286 417.586 83.5654 418.516 84.4904C419.393 85.4153 419.548 86.8844 419.6 88.2446C420.013 87.5917 421.097 87.7549 421.562 88.4078C422.078 89.0064 422.13 89.8769 422.13 90.693C422.078 93.1959 421.613 95.7531 420.374 97.8207C419.084 99.9427 417.019 101.575 414.644 101.847C407.21 102.663 406.487 91.346 406.229 85.9594Z" fill="#E79F8B"/>
<path d="M409.326 99.1806C409.326 99.1806 403.131 95.4807 405.3 91.4C407.468 87.2649 413.766 89.3869 412.424 91.8353C411.082 94.2293 408.139 93.7941 408.139 93.7941L409.326 99.1806Z" fill="#E79F8B"/>
<path d="M362.037 92.7606C362.76 92.6518 366.116 95.4267 369.781 95.209C373.447 94.9914 375.253 93.2503 375.77 92.6518C376.338 92.0533 379.332 98.3648 378.867 99.0177C378.403 99.725 377.06 102.391 375.77 101.901C374.427 101.412 370.659 96.6781 370.659 96.6781C370.659 96.6781 367.251 102.445 365.961 102.445C364.722 102.445 360.592 100.432 360.385 97.2766C360.179 94.1208 361.16 92.8694 362.037 92.7606Z" fill="white"/>
<path d="M421.304 99.1809L421.045 130.902H401.324L403.08 120.509L406.797 98.7456L408.758 98.8L408.965 98.8544H409.275L419.445 99.1265L421.304 99.1809Z" fill="#035AE0"/>
<path d="M384.34 51.137C385.63 53.0957 386.456 55.3809 386.869 57.7749C387.179 59.8425 387.592 62.6718 385.837 64.4673C385.527 64.7394 385.217 64.957 384.908 65.0114C384.753 65.0114 384.649 64.957 384.546 64.9026C384.064 64.3585 383.651 63.76 383.307 63.1071C383.273 63.0708 383.238 63.0164 383.204 62.9438C382.481 61.5292 382.068 59.8969 381.81 58.319C381.5 56.5235 381.294 54.456 381.81 52.606C381.965 52.1164 382.378 51.3546 382.739 50.9738C383.204 50.5385 383.669 50.4841 384.03 50.7561C384.133 50.8649 384.236 50.9919 384.34 51.137Z" fill="#035AE0"/>
<path d="M386.353 66.7528C386.353 78.5596 384.598 88.7342 372.827 89.4959C357.649 90.5297 351.454 78.5596 351.454 66.7528C351.454 54.8915 359.301 45.3154 368.904 45.3154C378.558 45.3154 386.353 54.8915 386.353 66.7528Z" fill="#E79F8B"/>
<path d="M367.819 77.4712C368.233 76.7095 370.607 76.8727 373.395 76.5463C376.493 76.1654 378.661 75.5669 379.229 75.8933C380.261 76.4918 378.145 81.2799 374.118 81.7152C371.227 81.9872 366.993 78.9403 367.819 77.4712Z" fill="white"/>
<path d="M364.774 51.4637C364.257 51.1373 363.689 50.702 363.07 50.5388C362.915 50.4844 361.831 50.2123 361.728 50.2667C361.315 50.4844 360.953 50.8108 360.643 51.1373C358.63 53.2593 357.185 55.8165 356.513 58.5914C355.894 61.0942 355.894 63.7603 355.378 66.3175C355.12 67.5689 355.12 70.2894 354.19 70.235C353.209 70.1262 353.106 68.2219 351.867 67.6234C350.576 66.9704 350.525 67.7322 349.492 67.0793C348.408 66.4263 347.066 62.9985 345.982 59.9516C344.898 56.9591 344.536 53.5313 345.62 50.4844C346.705 47.383 349.441 44.8258 352.641 44.5537C352.745 43.0303 354.19 41.7789 355.533 41.0715C358.475 39.5481 361.934 39.4937 365.238 39.4937C369.936 39.4937 374.892 39.6569 378.816 42.1597C379.28 42.4862 379.797 42.867 379.9 43.4655C380.003 44.0096 379.693 44.5537 379.384 45.0434C379.762 45.0797 380.158 45.1522 380.571 45.2611C382.894 45.7507 385.166 46.4581 387.024 47.9815C387.644 48.4712 388.212 49.0697 388.418 49.8315C388.676 50.8652 388.212 52.0078 387.386 52.7152C386.56 53.4225 385.424 53.6401 384.391 53.5313C385.32 53.6401 386.456 53.5313 387.282 53.9666C388.573 54.6739 387.54 56.0341 386.663 56.687C382.997 59.4075 378.712 58.8634 374.737 57.1767C371.278 55.6533 368.078 53.5313 364.877 51.5181C364.842 51.4819 364.808 51.4637 364.774 51.4637Z" fill="#223655"/>
<path d="M353.055 72.6288C353.158 73.8802 353.003 75.4037 352.229 76.1654C351.661 76.7095 350.886 76.6007 350.215 76.2742C348.408 75.3493 347.014 73.2273 346.188 70.7789C345.879 69.7995 345.672 68.7657 345.672 67.732C345.672 66.6982 345.982 65.6644 346.601 65.1203C348.46 63.4336 350.318 65.0659 351.609 67.4599C352.435 69.0922 353.003 71.0509 353.055 72.6288Z" fill="#E79F8B"/>
<path d="M347.066 67.623C347.169 67.4054 347.427 67.2422 347.634 67.1334C348.202 67.0245 348.77 67.4054 349.183 67.9495C349.647 68.4936 350.009 69.2009 350.318 69.9082C350.68 70.6156 350.938 71.4317 351.093 72.2479C351.093 72.4111 350.938 72.5199 350.886 72.3023C350.577 70.9964 349.905 69.745 349.234 68.7112C349.131 68.5661 349.011 68.4211 348.873 68.276C348.718 68.9289 348.718 69.6362 348.821 70.3435C348.976 71.1597 349.286 71.867 349.596 72.6287C349.647 72.6831 349.596 72.7919 349.544 72.6831C348.615 71.5949 348.202 69.5818 348.666 68.0583C348.46 67.8407 348.253 67.7319 347.995 67.7319C347.582 67.6775 347.118 68.0039 347.014 68.548C347.014 68.6568 346.86 68.6568 346.86 68.548C346.86 68.2215 346.911 67.8951 347.066 67.623Z" fill="#035AE0"/>
<path d="M388.47 63.9779C388.367 65.9366 388.263 68.0042 387.85 69.9085C387.695 70.6158 387.489 71.3232 386.869 71.7584C386.353 72.0849 385.63 72.1393 385.011 72.2481C384.15 72.3569 383.307 72.4476 382.481 72.5202C380.881 72.5746 379.177 72.629 377.577 72.3569C375.976 72.0849 375.718 70.6703 375.615 69.0924C375.512 67.6777 375.409 66.2631 375.357 64.8484C375.357 64.794 375.305 64.794 375.254 64.7396C375.202 64.6852 375.202 64.5764 375.15 64.4676C375.202 64.5764 375.15 64.522 375.15 64.4676C375.15 64.4676 375.047 64.3043 375.099 64.3588C375.15 64.4132 375.047 64.3043 375.047 64.3043C375.013 64.2681 374.978 64.2318 374.944 64.1955C374.841 64.123 374.755 64.0686 374.686 64.0323C374.651 64.0323 374.651 64.0323 374.686 64.0323C374.686 64.0323 374.669 64.0323 374.634 64.0323C374.6 63.996 374.565 63.9779 374.531 63.9779C374.428 63.9235 374.428 63.9779 374.324 63.9235C374.118 63.9235 373.911 63.9779 373.705 64.0323C373.189 64.1955 372.672 64.5764 372.208 64.9573C372.311 66.3175 372.311 67.7321 372.363 69.0924C372.363 70.6703 372.208 72.1937 370.607 72.7378C368.904 73.2819 366.994 73.4995 365.238 73.7172C364.24 73.7897 363.225 73.8441 362.192 73.8804C361.418 73.8804 360.54 73.9892 359.818 73.6628C358.992 73.3363 358.63 72.5746 358.372 71.8129C357.753 69.8541 357.34 67.7866 357.03 65.719C356.995 65.719 356.978 65.719 356.978 65.719C356.703 65.7553 356.428 65.7915 356.152 65.8278C355.602 65.9004 355.051 65.9729 354.5 66.0454C353.949 66.118 353.399 66.1724 352.848 66.2087C352.435 66.2631 351.661 66.4807 351.351 66.0454C351.248 65.8278 351.454 65.5558 351.609 65.5013C351.867 65.3381 352.229 65.3381 352.487 65.2837C353.055 65.1749 353.623 65.0661 354.19 64.9573C354.741 64.8847 355.292 64.794 355.842 64.6852C356.187 64.6489 356.514 64.6127 356.823 64.5764C356.823 64.5764 356.841 64.5764 356.875 64.5764C356.823 63.8691 356.875 63.1617 357.081 62.5632C357.546 61.4206 358.63 60.7677 359.766 60.7133C361.005 60.7133 362.192 60.7133 363.38 60.7133C365.393 60.6589 367.355 60.6045 369.317 60.6589C370.659 60.7677 371.795 61.3118 372.001 62.8353C372.036 63.1617 372.07 63.4701 372.104 63.7602C372.569 63.325 373.085 62.9441 373.653 62.7809C374.221 62.6176 374.841 62.6721 375.357 62.9985C375.357 62.9622 375.357 62.9441 375.357 62.9441C375.46 61.3662 376.441 60.7677 377.732 60.6589C379.487 60.4413 381.242 60.4413 382.997 60.3869C383.978 60.3325 384.959 60.278 385.94 60.2236C386.869 60.2236 387.747 60.7677 388.16 61.6927C388.47 62.4 388.521 63.2162 388.47 63.9779Z" fill="#223655"/>
<path d="M371.227 70.2352C371.124 71.0513 370.762 71.4322 370.039 71.5954C367.252 72.3027 364.102 72.6836 361.108 72.5204C360.076 72.466 359.818 71.9763 359.508 71.0513C359.198 70.217 358.957 69.3646 358.785 68.4941C358.475 67.1338 358.062 65.7192 358.114 64.3045C358.217 62.4002 358.992 62.1282 360.695 62.1282C361.487 62.0919 362.278 62.0738 363.07 62.0738C364.67 62.0738 366.219 62.0738 367.768 62.0738C368.387 62.0738 369.059 61.9649 369.678 62.0738C370.401 62.1826 370.711 62.4546 370.814 63.2164C371.02 64.7942 371.072 66.4265 371.175 68.0588C371.227 68.7661 371.278 69.5279 371.227 70.2352Z" fill="white"/>
<path d="M387.334 67.0248C387.231 67.8228 387.093 68.6026 386.921 69.3644C386.766 70.2349 386.56 70.7246 385.785 70.8878C383.307 71.4319 380.571 71.4863 377.99 71.2143C377.319 71.1055 376.906 70.8334 376.751 70.0173C376.648 69.3644 376.648 68.6026 376.648 67.8953C376.544 66.3719 376.493 64.7396 376.544 63.2161C376.544 62.4 376.802 62.1279 377.525 62.0191C378.093 61.9103 378.661 61.9103 379.281 61.8559C380.623 61.8015 382.017 61.6926 383.359 61.6382C384.013 61.602 384.667 61.5657 385.321 61.5294C386.663 61.4206 387.282 61.6382 387.489 63.2705C387.644 64.5219 387.437 65.8278 387.334 67.0248Z" fill="white"/>
<path d="M318.878 121.924C318.878 124.644 316.813 126.821 314.232 126.821C311.702 126.821 309.586 124.644 309.586 121.924C309.586 119.258 311.702 117.027 314.232 117.027C316.813 117.027 318.878 119.258 318.878 121.924Z" fill="#035AE0"/>
<path d="M270.712 339.181C271.176 338.8 271.641 338.583 272.209 338.637C273.551 338.692 274.893 339.181 276.081 339.834C277.629 340.65 278.92 341.956 279.591 343.697C280.262 345.493 279.436 346.418 277.681 346.69C276.7 346.799 275.048 346.799 274.171 346.146C273.603 345.71 273.861 344.785 273.758 344.078C273.706 343.262 273.499 342.391 273.086 341.684C272.364 340.487 271.486 340.269 270.195 340.269C269.834 339.997 270.505 339.399 270.712 339.181Z" fill="#035AE0"/>
<path d="M254.759 360.02C254.037 362.033 254.501 363.72 254.037 365.896C253.314 369.487 251.507 373.078 250.216 376.506C247.325 384.232 244.228 391.523 242.163 399.63C240.511 405.996 239.272 412.416 239.014 419C238.859 423.516 239.22 429.066 242.576 432.276C245.983 435.486 249.39 434.398 253.365 433.527C255.43 433.092 256.36 432.711 257.547 434.561C258.786 436.357 258.683 437.717 257.289 438.696C254.243 440.927 247.067 441.58 243.402 441.961C235.658 442.831 231.063 437.282 230.289 429.719C229.05 417.966 232.251 406.703 235.296 395.549C237.516 387.279 240.82 379.335 245.518 372.262C246.706 370.467 251.713 359.476 254.553 360.455C253.985 359.911 254.398 359.966 254.759 360.02Z" fill="#035AE0"/>
<path opacity="0.4" d="M244.124 441.906C243.884 441.943 243.643 441.961 243.402 441.961C235.658 442.831 231.063 437.281 230.289 429.719C229.05 417.966 232.251 406.703 235.296 395.549C236.639 390.653 238.342 385.81 240.511 381.24C239.96 382.945 239.461 384.686 239.014 386.463C237.826 391.142 236.897 395.93 236.174 400.718C235.245 406.486 234.419 412.253 234.264 418.075C234.109 423.298 234.367 428.794 236.329 433.69C237.207 435.867 238.446 437.88 240.098 439.458C241.337 440.546 242.679 441.362 244.124 441.906Z" fill="#035AE0" fill-opacity="0.5"/>
<path d="M308.14 438.533C306.23 440.492 292.033 442.831 278.868 443.539C276.132 443.702 273.448 443.756 270.918 443.756C264.671 443.702 256.876 443.974 254.708 442.124C249.545 437.717 236.897 362.523 258.786 349.302C263.794 346.255 275.668 344.514 280.262 344.731C280.83 344.786 281.347 344.786 281.863 344.894C296.318 346.69 304.475 363.774 307.985 388.748C312.735 422.319 311.393 435.214 308.14 438.533Z" fill="#FFD102"/>
<path opacity="0.5" d="M278.869 443.539C276.132 443.702 273.448 443.756 270.918 443.756C264.672 443.702 256.876 443.974 254.708 442.124C249.545 437.717 236.897 362.523 258.786 349.301C261.006 347.941 264.568 346.853 268.234 346.091C270.041 345.71 271.899 345.384 273.654 345.166C276.287 344.84 278.714 344.677 280.262 344.731C280.83 344.785 281.347 344.785 281.863 344.894C276.287 345.438 271.796 349.628 269.628 356.81C263.329 378.084 269.731 417.476 278.869 443.539Z" fill="#F59711"/>
<path opacity="0.5" d="M273.654 345.167C271.589 346.364 269.679 347.833 268.079 349.682C264.568 353.818 262.142 359.095 260.541 364.319C258.941 369.596 258.115 375.092 257.805 380.587C257.444 386.409 258.012 392.231 258.373 398.053C258.735 404.582 259.87 410.948 260.49 417.477C260.541 417.912 259.148 418.347 258.735 418.075C258.27 418.184 257.805 418.184 257.702 417.966C256.824 414.267 256.566 410.295 256.102 406.54C255.689 402.786 255.379 399.032 255.172 395.332C254.553 383.852 254.914 371.936 258.889 361.108C260.748 355.831 263.484 350.39 267.562 346.69C267.769 346.472 267.993 346.273 268.234 346.091C270.041 345.711 271.899 345.384 273.654 345.167Z" fill="#035AE0"/>
<path d="M299.57 375.037C299.57 375.527 299.57 376.016 299.416 376.452C299.157 377.159 298.538 377.376 297.918 377.485C295.303 377.848 292.584 378.193 289.762 378.519C288.282 378.7 286.767 378.882 285.218 379.063C284.427 379.136 283.618 379.226 282.792 379.335C282.379 379.335 281.966 379.444 281.553 379.444C281.243 379.39 280.934 379.281 280.572 379.281C279.746 378.954 279.643 377.322 279.54 375.472C279.436 373.785 279.282 371.881 279.54 371.391C280.056 370.466 281.656 370.466 281.966 370.412C283.36 370.031 284.857 369.977 286.251 369.814C289.417 369.523 292.446 369.36 295.337 369.324C296.266 369.324 297.454 369.269 298.228 369.922C298.899 370.466 299.157 371.5 299.312 372.425C299.45 373.259 299.536 374.13 299.57 375.037Z" fill="#035AE0"/>
<path d="M264.104 348.213C263.019 348.267 263.949 341.847 264.826 340.541C266.323 338.419 269.008 337.766 271.383 337.549C274.119 337.222 279.695 340.215 279.643 343.915C277.991 340.868 272.88 337.549 270.041 341.14C268.802 342.718 270.092 345.166 269.266 346.472C268.234 348.159 265.136 348.159 264.104 348.213Z" fill="#035AE0" fill-opacity="0.5"/>
<path d="M315.11 439.948C313.458 441.253 299.003 443.811 289.452 443.974C285.993 444.083 283.205 443.865 281.811 443.158C278.817 441.689 276.958 427.488 277.32 412.96C277.63 402.242 280.882 392.883 287.18 389.836C290.02 388.476 292.807 387.823 295.44 387.823C296.576 387.823 297.66 387.932 298.744 388.15C308.14 390.054 315.11 400.12 316.607 413.232C318.672 431.242 317.381 438.152 315.11 439.948Z" fill="#035AE0" fill-opacity="0.5"/>
<path opacity="0.5" d="M298.744 388.15C294.976 388.585 292.343 391.414 291.723 392.666C288.264 399.304 287.284 407.574 287.077 415.3C286.819 424.169 287.077 434.942 289.452 443.974C285.993 444.083 283.205 443.865 281.811 443.158C278.817 441.689 276.958 427.488 277.32 412.96C277.63 402.242 280.882 392.883 287.18 389.836C290.02 388.476 292.807 387.823 295.44 387.823C296.576 387.823 297.66 387.932 298.744 388.15Z" fill="#035AE0"/>
<path d="M259.044 416.769C260.748 416.715 261.419 422.482 261.058 423.026C260.645 423.57 258.476 423.788 257.908 423.407C257.392 422.972 257.289 416.769 259.044 416.769Z" fill="#035AE0"/>
<path d="M387.179 443.811H383.307L396.368 322.206H407.107L387.179 443.811Z" fill="#223655"/>
<path d="M495.696 322.206H506.434L519.444 443.811H515.624L495.696 322.206Z" fill="#223655"/>
<path d="M468.748 322.206H479.486L492.495 443.811H488.675L468.748 322.206Z" fill="#223655"/>
<path d="M412.734 443.811H408.862L421.872 322.206H432.61L412.734 443.811Z" fill="#223655"/>
<path d="M527.549 183.842L507.209 308.386H459.507L479.899 183.842H527.549Z" fill="#5585CB"/>
<g style="mix-blend-mode:multiply" opacity="0.5">
<path d="M521.767 183.842L501.375 308.386H459.507L479.899 183.842H521.767Z" fill="#035AE0"/>
</g>
<path d="M507.209 325.144H394.562V308.386H507.209V325.144Z" fill="#035AE0"/>
<g style="mix-blend-mode:multiply" opacity="0.5">
<path d="M434.984 325.144H394.562V308.386H434.984V325.144Z" fill="#035AE0"/>
</g>
<path d="M375.047 380.75C377.422 378.9 379.951 377.05 382.894 376.669C383.462 376.615 384.082 376.615 384.391 377.105C384.495 377.377 384.494 377.703 384.494 377.975C384.34 379.662 383.514 381.131 382.584 382.491C381.655 383.906 380.623 385.212 379.28 386.191C377.99 387.225 376.389 387.878 374.789 387.769C373.601 387.714 370.762 386.681 370.865 384.994C370.917 383.525 374.015 381.566 375.047 380.75Z" fill="#035AE0" fill-opacity="0.5"/>
<path d="M355.739 378.519C355.842 380.097 355.687 381.838 354.552 382.818C353.364 383.851 351.557 383.47 350.112 382.763C348.202 381.784 346.498 380.206 345.569 378.193C344.64 376.125 344.485 373.677 345.362 371.609C345.672 370.847 346.137 370.14 346.653 369.487C347.324 368.562 348.15 367.692 349.131 367.202C350.009 366.767 351.454 366.549 352.177 367.311C352.9 368.073 353.416 369.65 353.829 370.63C354.913 373.133 355.533 375.799 355.739 378.519Z" fill="#035AE0" fill-opacity="0.5"/>
<g style="mix-blend-mode:multiply" opacity="0.2">
<path d="M359.043 380.587C362.863 381.566 366.684 381.729 370.452 381.621C372.466 381.566 374.789 381.131 375.357 379.063C375.77 377.485 374.944 375.581 373.963 374.058C372.311 371.5 370.194 369.324 367.768 367.801C366.787 367.148 365.754 366.658 364.825 365.842C363.896 365.026 363.07 363.938 362.915 362.686C362.76 361.38 363.38 360.238 364.309 359.585C365.187 358.877 366.271 358.66 367.406 358.551C372.259 357.898 377.732 358.986 382.068 362.577C386.405 366.223 389.296 372.752 388.005 377.975C387.334 380.804 385.579 383.035 383.617 384.722C378.867 388.748 372.363 390.381 365.961 389.075C361.521 388.15 357.133 385.919 353.364 382.709C351.557 381.185 347.376 378.302 346.137 376.18C344.227 373.024 349.028 376.724 350.009 377.322C352.59 378.955 356.255 379.879 359.043 380.587Z" fill="#035AE0" fill-opacity="0.5"/>
</g>
<path d="M367.045 359.421L385.888 368.345C385.888 368.345 381.862 382.545 380.571 384.45C379.229 386.354 352.125 381.566 347.376 376.56C342.626 371.555 363.018 367.311 363.018 367.311L367.045 359.421Z" fill="white"/>
<path d="M406.229 387.007C407.675 384.287 409.327 381.457 411.856 379.879C412.321 379.607 412.94 379.39 413.405 379.716C413.611 379.879 413.766 380.151 413.818 380.478C414.334 382.056 414.128 383.742 413.766 385.375C413.457 387.061 412.992 388.694 412.218 390.163C411.392 391.632 410.204 392.938 408.655 393.536C407.52 393.971 404.577 394.243 404.009 392.666C403.493 391.251 405.558 388.15 406.229 387.007Z" fill="#035AE0" fill-opacity="0.5"/>
<path d="M387.695 393.101C388.367 394.461 388.883 396.148 388.212 397.508C387.489 398.977 385.734 399.412 384.185 399.358C382.017 399.304 379.9 398.542 378.248 397.073C376.596 395.604 375.512 393.427 375.563 391.142C375.563 390.326 375.718 389.456 375.925 388.639C376.234 387.497 376.596 386.409 377.319 385.538C377.938 384.776 379.177 383.906 380.21 384.341C381.139 384.722 382.223 385.919 382.946 386.681C384.856 388.531 386.456 390.707 387.695 393.101Z" fill="#035AE0" fill-opacity="0.5"/>
<g style="mix-blend-mode:multiply" opacity="0.2">
<path d="M391.464 393.59C395.336 392.883 398.95 391.414 402.357 389.673C404.164 388.802 406.126 387.442 405.868 385.32C405.661 383.633 404.164 382.273 402.667 381.294C400.189 379.662 397.401 378.573 394.665 378.193C393.477 378.029 392.342 377.975 391.154 377.648C390.019 377.268 388.883 376.615 388.263 375.526C387.644 374.438 387.747 373.078 388.315 372.099C388.883 371.119 389.812 370.466 390.741 369.868C394.975 367.202 400.395 365.896 405.764 367.365C411.133 368.834 416.244 373.622 417.07 378.954C417.535 381.838 416.761 384.613 415.573 387.007C412.734 392.72 407.416 396.909 401.066 398.433C396.627 399.467 391.774 399.303 387.076 397.889C384.856 397.29 379.952 396.42 377.99 395.005C374.995 392.883 380.881 394.243 382.017 394.407C384.959 394.842 388.676 394.135 391.464 393.59Z" fill="#035AE0" fill-opacity="0.5"/>
</g>
<path d="M390.793 370.793L411.443 371.065C411.443 371.065 413.147 385.756 412.682 388.041C412.217 390.326 385.527 397.399 379.28 394.842C373.034 392.285 390.07 379.771 390.07 379.771L390.793 370.793Z" fill="white"/>
<path d="M481.086 275.685C481.086 275.685 487.023 305.175 469.987 305.61C452.95 306.1 407.107 307.95 407.107 307.95L385.424 374.71L359.405 364.808C359.405 364.808 378.041 291.137 385.114 285.044C392.135 279.004 436.843 275.25 445.465 275.467C454.086 275.685 481.086 275.685 481.086 275.685Z" fill="#035AE0"/>
<g style="mix-blend-mode:multiply" opacity="0.3">
<path d="M481.086 275.685C481.086 275.685 487.023 305.175 469.987 305.61C452.95 306.1 407.107 307.95 407.107 307.95L385.424 374.71L359.405 364.808C359.405 364.808 378.041 291.137 385.114 285.044C392.135 279.004 436.843 275.25 445.465 275.467C454.086 275.685 481.086 275.685 481.086 275.685Z" fill="#663BFF"/>
</g>
<path d="M360.282 356.266L389.399 367.583L384.959 376.071L358.475 366.223L360.282 356.266Z" fill="#F59711"/>
<g style="mix-blend-mode:multiply" opacity="0.3">
<path d="M360.282 356.266L389.399 367.583L384.959 376.071L358.475 366.223L360.282 356.266Z" fill="#035AE0"/>
</g>
<g style="mix-blend-mode:multiply" opacity="0.3">
<path d="M378.971 373.84L358.475 366.223L360.282 356.266L363.07 357.354C363.689 358.768 364.464 360.074 365.238 361.326C366.942 363.829 368.904 366.114 371.124 368.181C373.498 370.412 376.131 372.316 378.971 373.84Z" fill="#F59711"/>
</g>
<path d="M496.109 276.882C496.109 276.882 502.201 308.168 484.545 308.657C466.889 309.147 419.342 311.16 419.342 311.16L414.334 378.519L387.592 377.54C387.592 377.54 389.193 293.259 396.472 286.785C403.751 280.364 450.162 276.392 459.145 276.61C468.076 276.882 496.109 276.882 496.109 276.882Z" fill="#035AE0"/>
<g style="mix-blend-mode:multiply" opacity="0.1">
<path d="M407.623 378.301L387.592 377.54C387.592 377.54 389.192 293.259 396.472 286.785C399.569 284.064 409.533 281.833 420.787 280.092C414.902 284.119 409.688 289.124 405.713 295.164C400.86 302.618 399.827 311.65 399.931 320.464C399.982 325.035 400.344 329.55 400.705 334.066C401.118 338.8 401.428 343.534 401.789 348.322C402.202 353.763 402.77 359.204 403.854 364.536C404.302 366.821 404.783 369.088 405.3 371.337C405.816 373.459 406.384 375.635 407.261 377.594C407.365 377.866 407.52 378.084 407.623 378.301Z" fill="#035AE0"/>
</g>
<g style="mix-blend-mode:multiply" opacity="0.1">
<path d="M484.545 308.657C468.025 309.093 425.176 310.888 419.858 311.106C420.168 310.779 420.736 310.562 421.097 310.453C422.026 310.127 423.007 309.909 423.988 309.746C426.466 309.256 429.047 308.984 431.577 308.712C436.791 308.277 442.005 308.005 447.22 307.352C454.963 306.427 462.811 305.012 470.141 302.128C473.549 300.768 476.853 299.081 479.95 297.014C482.893 295.055 485.836 292.607 487.436 289.288C488.21 287.655 488.623 285.805 488.985 284.01C489.363 282.087 489.621 280.165 489.759 278.243C489.759 277.771 489.776 277.318 489.811 276.882C493.579 276.882 496.109 276.882 496.109 276.882C496.109 276.882 502.201 308.168 484.545 308.657Z" fill="#035AE0"/>
</g>
<path d="M407.571 367.311C407.416 367.311 407.313 367.202 407.313 367.039L407.416 365.407C407.416 365.243 407.519 365.135 407.674 365.189C407.829 365.189 407.932 365.298 407.932 365.461L407.829 367.093C407.829 367.202 407.726 367.311 407.571 367.311Z" fill="#F59711"/>
<path d="M407.932 362.414C407.898 362.414 407.881 362.414 407.881 362.414C407.778 362.36 407.623 362.251 407.674 362.088L407.881 358.769C407.881 358.606 408.036 358.497 408.191 358.551C408.294 358.551 408.397 358.66 408.397 358.823L408.191 362.142C408.139 362.305 408.036 362.414 407.932 362.414ZM408.397 355.776C408.242 355.722 408.139 355.613 408.139 355.45L408.397 352.131C408.397 351.968 408.5 351.859 408.655 351.913C408.81 351.913 408.913 352.022 408.913 352.185L408.655 355.504C408.655 355.667 408.5 355.776 408.397 355.776ZM408.862 349.138C408.707 349.084 408.604 348.975 408.604 348.812C408.707 347.724 408.793 346.617 408.862 345.493C408.913 345.33 409.017 345.221 409.171 345.275C409.275 345.275 409.378 345.384 409.378 345.547C409.309 346.672 409.223 347.778 409.12 348.866C409.12 349.029 409.017 349.138 408.862 349.138ZM409.378 342.5C409.223 342.446 409.12 342.337 409.12 342.174L409.378 338.855C409.378 338.692 409.533 338.583 409.688 338.637C409.791 338.637 409.894 338.746 409.894 338.909L409.636 342.228C409.636 342.392 409.533 342.5 409.378 342.5ZM409.894 335.862C409.739 335.808 409.636 335.699 409.636 335.536L409.946 332.217C409.946 332.108 410.049 331.945 410.204 331.999C410.359 331.999 410.462 332.108 410.41 332.271L410.152 335.59C410.152 335.754 410.049 335.862 409.894 335.862ZM410.462 329.224C410.462 329.224 410.445 329.224 410.41 329.224C410.307 329.17 410.204 329.061 410.204 328.898L410.462 325.579C410.462 325.47 410.565 325.307 410.772 325.361C410.875 325.361 410.978 325.47 410.978 325.633L410.72 328.952C410.72 329.116 410.565 329.224 410.462 329.224ZM411.03 322.586C411.03 322.586 411.013 322.586 410.978 322.586C410.875 322.586 410.772 322.423 410.772 322.26C410.875 321.136 410.961 320.029 411.03 318.941C411.082 318.832 411.185 318.669 411.34 318.723C411.495 318.723 411.598 318.887 411.546 318.995C411.477 320.084 411.391 321.19 411.288 322.314C411.288 322.478 411.133 322.586 411.03 322.586ZM411.598 315.949C411.443 315.949 411.34 315.785 411.34 315.676C411.477 314.516 411.598 313.409 411.701 312.357C411.701 312.194 411.804 312.085 411.959 312.085C412.114 312.085 412.217 312.249 412.217 312.412C412.114 313.464 411.994 314.57 411.856 315.731C411.856 315.84 411.753 315.949 411.598 315.949ZM412.269 309.311C412.114 309.311 412.011 309.147 412.011 309.038C412.149 307.841 412.269 306.735 412.372 305.72C412.424 305.556 412.527 305.447 412.682 305.502C412.837 305.502 412.94 305.611 412.888 305.774C412.785 306.79 412.665 307.896 412.527 309.093C412.527 309.202 412.424 309.311 412.269 309.311ZM413.043 302.727C412.889 302.673 412.785 302.564 412.837 302.401C413.009 300.95 413.181 299.843 413.353 299.082C413.405 298.973 413.56 298.864 413.663 298.918C413.818 298.918 413.921 299.082 413.869 299.245C413.697 299.97 413.508 301.058 413.302 302.509C413.302 302.618 413.198 302.727 413.043 302.727ZM415.986 297.885C415.831 297.885 415.728 297.776 415.728 297.613C415.676 297.504 415.78 297.34 415.934 297.34C416.76 297.232 417.793 297.123 419.084 297.014C419.238 296.96 419.342 297.068 419.393 297.232C419.393 297.395 419.29 297.504 419.135 297.504C417.845 297.667 416.812 297.776 415.986 297.885ZM422.284 297.286C422.129 297.286 422.026 297.177 422.026 297.014C421.975 296.851 422.129 296.742 422.233 296.742C423.231 296.669 424.281 296.579 425.382 296.47C425.537 296.47 425.692 296.579 425.692 296.742C425.692 296.905 425.588 297.014 425.434 297.014C424.332 297.087 423.282 297.177 422.284 297.286ZM428.583 296.796C428.428 296.796 428.325 296.688 428.325 296.579C428.325 296.416 428.428 296.252 428.583 296.252C429.581 296.18 430.63 296.107 431.732 296.035C431.887 296.035 431.99 296.143 431.99 296.307C431.99 296.47 431.887 296.579 431.732 296.579C430.665 296.651 429.615 296.724 428.583 296.796ZM434.881 296.415C434.778 296.415 434.623 296.307 434.623 296.143C434.623 295.98 434.726 295.871 434.881 295.871L438.03 295.654C438.185 295.654 438.288 295.763 438.288 295.926C438.288 296.089 438.185 296.198 438.082 296.198L434.881 296.415ZM441.179 296.035C441.076 296.035 440.973 295.926 440.921 295.763C440.921 295.599 441.024 295.491 441.179 295.491L444.328 295.273C444.483 295.273 444.587 295.382 444.587 295.545C444.638 295.708 444.535 295.817 444.38 295.817L441.231 296.035C441.231 296.035 441.214 296.035 441.179 296.035ZM447.529 295.654C447.374 295.654 447.271 295.545 447.271 295.382C447.22 295.219 447.374 295.11 447.478 295.11L450.627 294.892C450.782 294.892 450.937 295.001 450.937 295.164C450.937 295.327 450.833 295.436 450.678 295.436L447.529 295.654ZM453.828 295.219C453.673 295.219 453.569 295.11 453.569 295.001C453.569 294.838 453.673 294.729 453.776 294.674C454.877 294.638 455.944 294.584 456.977 294.511C457.08 294.457 457.235 294.62 457.235 294.729C457.235 294.892 457.132 295.001 456.977 295.055C455.944 295.128 454.895 295.182 453.828 295.219ZM460.126 294.838C459.971 294.838 459.868 294.729 459.868 294.566C459.868 294.402 459.971 294.294 460.126 294.294C461.193 294.221 462.243 294.148 463.275 294.076C463.43 294.021 463.533 294.185 463.533 294.294C463.533 294.457 463.43 294.566 463.275 294.62C462.277 294.693 461.227 294.765 460.126 294.838ZM466.424 294.348C466.321 294.348 466.166 294.239 466.166 294.13C466.166 293.967 466.269 293.804 466.424 293.804C467.56 293.731 468.61 293.641 469.573 293.532C469.728 293.532 469.832 293.641 469.832 293.804C469.883 293.913 469.78 294.076 469.625 294.076C468.661 294.185 467.612 294.275 466.476 294.348C466.441 294.348 466.424 294.348 466.424 294.348ZM472.723 293.749C472.619 293.749 472.516 293.641 472.464 293.477C472.464 293.369 472.568 293.205 472.723 293.205C474.375 292.988 474.788 292.824 474.942 292.716C475.149 292.607 475.355 292.462 475.562 292.28C475.717 292.226 475.872 292.226 475.923 292.389C476.027 292.498 475.975 292.661 475.872 292.77C475.631 292.915 475.407 293.06 475.201 293.205C474.994 293.314 474.581 293.477 472.774 293.749C472.774 293.749 472.757 293.749 472.723 293.749ZM478.143 290.703C478.074 290.703 478.023 290.666 477.988 290.594C477.885 290.485 477.885 290.322 477.988 290.213C478.746 289.415 479.417 288.599 480.002 287.764C480.105 287.601 480.26 287.601 480.363 287.656C480.466 287.764 480.518 287.928 480.415 288.036C479.83 288.943 479.141 289.796 478.35 290.594C478.281 290.666 478.212 290.703 478.143 290.703Z" fill="#F59711"/>
<path d="M481.551 285.533C481.516 285.533 481.482 285.533 481.447 285.533C481.344 285.479 481.292 285.316 481.344 285.207C481.516 284.699 481.654 284.191 481.757 283.683C481.809 283.52 481.912 283.411 482.067 283.466C482.222 283.466 482.273 283.629 482.273 283.792C482.17 284.3 482.015 284.826 481.809 285.37C481.757 285.479 481.654 285.533 481.551 285.533Z" fill="#F59711"/>
<path d="M385.888 368.344L416.864 369.759L415.109 379.281L387.024 378.41L385.888 368.344Z" fill="#F59711"/>
<g style="mix-blend-mode:multiply" opacity="0.3">
<path d="M408.759 379.117L387.024 378.41L385.888 368.344L388.883 368.507C389.864 369.65 390.948 370.629 392.084 371.554C394.407 373.459 396.936 374.982 399.621 376.234C402.512 377.594 405.609 378.519 408.759 379.117Z" fill="#F59711"/>
</g>
<path d="M448.923 230.688C448.923 230.688 425.743 251.31 421.82 253.758C417.948 256.207 383.72 252.724 383.72 252.724L385.217 243.148C385.217 243.148 413.456 238.143 416.089 237.218C418.774 236.293 436.998 214.638 436.998 214.638L448.923 230.688Z" fill="#FFA18B"/>
<path d="M424.349 225.737C424.349 225.737 439.424 200.764 446.032 198.914C452.64 197.118 465.237 202.45 458.216 216.325C451.143 230.253 442.16 240.156 442.16 240.156C442.16 240.156 428.583 238.415 424.349 225.737Z" fill="#035AE0" fill-opacity="0.5"/>
<g style="mix-blend-mode:multiply" opacity="0.4">
<path d="M458.216 216.324C451.143 230.253 442.16 240.156 442.16 240.156C442.16 240.156 437.411 239.557 432.661 236.402C433.177 233.736 433.9 231.069 434.726 228.403C435.914 224.649 437.359 220.895 438.908 217.249C440.405 213.658 442.005 210.122 443.761 206.64C445.206 203.865 446.755 201.144 448.562 198.587C455.325 198.478 464.411 204.082 458.216 216.324Z" fill="#035AE0" fill-opacity="0.5"/>
</g>
<path d="M441.902 216.542C439.011 221.657 436.688 227.533 432.042 230.58C431.629 230.852 430.854 230.743 430.338 230.689C427.292 221.384 428.531 210.611 433.591 202.776C437.462 196.737 443.451 192.439 449.956 189.99C456.564 187.542 463.792 186.889 471.019 187.107C479.589 187.433 488.933 189.337 495.49 195.758C499.826 200.002 502.511 205.823 504.627 211.754C505.815 215.182 506.899 218.773 506.899 222.364C506.899 226.009 505.712 229.709 503.027 231.831C500.755 233.681 497.658 234.225 494.767 233.79C491.824 233.409 489.036 232.158 486.455 230.634C477.111 225.248 472.465 214.583 468.489 204.572C466.063 207.401 460.694 208.163 458.319 207.456C457.132 207.129 455.841 206.64 454.964 205.606C454.086 204.626 453.621 203.212 453.879 201.906C449.181 205.932 445 211.047 441.902 216.542Z" fill="#035AE0" fill-opacity="0.5"/>
<g style="mix-blend-mode:multiply" opacity="0.2">
<path d="M487.488 249.133C489.966 238.415 491.67 227.478 492.237 216.433C492.496 210.883 492.444 205.334 492.082 199.73C491.876 197.336 491.36 194.996 494.354 196.193C496.213 196.9 497.968 198.369 499.104 200.11C500.962 203.103 501.323 206.748 501.582 210.285C502.614 222.69 503.44 235.15 504.111 247.555C504.731 259.417 505.247 271.332 503.492 283.03C503.13 285.37 502.666 287.764 501.427 289.723C499.878 292.28 497.297 293.858 494.612 294.837C486.662 297.775 477.885 296.252 469.677 294.293C465.495 293.314 460.746 291.627 459.352 287.383C464.824 283.575 472.362 283.302 477.111 278.406C479.95 275.522 481.344 271.441 482.532 267.469C484.39 261.43 486.042 255.336 487.488 249.133Z" fill="#035AE0" fill-opacity="0.5"/>
</g>
<g style="mix-blend-mode:multiply" opacity="0.2">
<path d="M459.352 288.526C452.95 287.982 446.445 287.22 440.663 284.608C439.528 284.118 438.443 283.52 437.721 282.541C437.153 281.724 436.946 280.691 436.791 279.657C435.914 274.216 436.12 268.612 437.308 263.171C437.824 260.722 438.547 258.328 438.65 255.88C438.753 253.432 438.237 250.929 438.547 248.535C439.218 249.405 439.941 250.221 440.715 250.983C442.057 252.398 443.451 253.595 445 254.629C446.445 255.608 448.046 256.642 448.923 258.22C449.543 259.471 449.388 260.559 448.304 261.375C447.478 261.974 446.342 262.409 445.878 263.443C444.432 266.49 449.44 268.666 451.195 269.7C454.757 271.822 458.371 274.107 462.294 275.467C458.577 275.068 454.878 274.651 451.195 274.216C448.923 273.944 446.6 273.672 444.277 273.998C445.206 275.903 447.168 277.154 449.078 278.242C453.157 280.527 457.39 282.051 461.778 283.738C466.063 285.37 463.224 288.852 459.352 288.526Z" fill="#035AE0" fill-opacity="0.5"/>
</g>
<path d="M498.019 285.751C489.398 287.601 449.13 283.52 438.753 275.848C440.095 268.557 441.902 264.803 442.057 254.955C442.16 249.677 439.889 237.489 439.424 226.063C438.856 212.896 440.973 202.287 444.432 199.784C447.891 197.281 460.023 194.778 468.335 195.105C476.646 195.485 488.469 197.335 491.669 201.525C494.922 205.823 496.161 213.06 498.071 242.169C498.949 256.261 498.897 275.848 498.019 285.751Z" fill="white"/>
<path d="M395.749 239.721C396.833 236.891 399.001 234.497 401.531 232.648C402.305 232.103 403.183 231.559 404.061 231.287C405.919 230.689 408.088 230.961 409.843 231.396C412.063 231.94 414.128 232.92 416.193 233.736C418.12 234.534 420.065 235.332 422.026 236.13C422.439 236.293 423.007 236.674 423.472 236.728C427.447 237.272 452.124 240.646 456.564 240.755C461.107 235.694 468.025 222.146 468.025 222.146C468.025 222.146 480.312 223.724 484.029 231.233C484.08 231.015 469.057 253.595 466.837 254.847C464.618 256.044 454.499 254.302 442.315 250.983C433.074 248.426 425.072 245.815 421.717 244.672C421.235 244.817 420.684 244.908 420.065 244.944C413.611 245.434 414.592 241.571 414.283 241.353L414.437 241.135C413.198 241.607 411.942 242.024 410.669 242.387C410.153 242.55 409.481 242.659 409.275 242.224C409.068 241.897 409.327 241.462 409.585 241.135C410.411 240.047 411.323 239.013 412.321 238.034C410.256 239.521 408.174 240.99 406.074 242.441C405.661 242.713 405.093 243.04 404.68 242.768C404.319 242.496 404.474 241.897 404.68 241.462C405.764 239.394 407.313 237.49 409.223 235.966C407.847 237.091 406.453 238.215 405.042 239.34C404.061 240.102 403.08 240.863 402.047 241.571C401.118 242.169 399.982 242.768 399.001 242.387C398.898 242.332 398.743 242.278 398.692 242.169C398.692 242.006 398.743 241.897 398.795 241.788C399.982 239.34 402.151 237.327 404.216 235.368C402.357 236.891 400.499 238.397 398.64 239.884C397.917 240.482 397.04 241.135 396.162 240.918C396.007 240.863 395.801 240.755 395.697 240.591C395.543 240.374 395.646 239.993 395.749 239.721Z" fill="#FFC9B0"/>
<g style="mix-blend-mode:multiply">
<path d="M464.101 240.21C462.656 238.415 461.726 236.565 461.004 234.552C464.618 228.839 468.025 222.146 468.025 222.146C468.025 222.146 480.312 223.724 484.029 231.233C484.029 231.07 477.782 240.537 472.723 247.501C469.264 246.25 466.115 242.659 464.101 240.21Z" fill="#FFC9B0"/>
</g>
<g style="mix-blend-mode:multiply" opacity="0.3">
<path d="M414.179 240.047C415.676 240.265 417.019 240.917 418.464 241.298C419.858 241.625 421.355 241.788 422.749 242.06C426.621 242.767 430.235 244.182 433.849 245.433C440.663 247.773 447.633 249.786 454.809 251.418C459.094 252.398 463.688 253.704 468.283 253.377C467.612 254.139 467.147 254.683 466.837 254.846C464.618 256.043 454.499 254.302 442.315 250.983C433.074 248.426 425.072 245.814 421.717 244.672C421.235 244.817 420.684 244.907 420.065 244.944C413.611 245.433 414.592 241.57 414.283 241.353L414.437 241.135C413.198 241.607 411.942 242.024 410.669 242.386C410.359 242.495 409.946 242.604 409.636 242.495C411.133 241.57 412.631 240.863 414.179 240.047Z" fill="#FFC9B0"/>
</g>
<path d="M459.352 232.593C460.487 230.906 469.677 215.726 472.826 210.067C474.53 207.129 476.388 204.137 479.124 201.852C481.086 200.274 486.662 196.683 490.637 201.58C490.843 201.833 491.033 202.106 491.205 202.396C491.446 202.686 491.652 202.994 491.824 203.321C494.457 208.163 493.683 214.801 492.082 220.405C491.773 221.493 491.411 222.563 490.998 223.615C488.21 230.362 483.564 238.85 478.969 244.998C472.878 244.509 462.398 238.687 459.352 232.593Z" fill="#035AE0" fill-opacity="0.5"/>
<g style="mix-blend-mode:multiply" opacity="0.4">
<path d="M492.392 219.263C492.289 219.625 492.186 220.006 492.082 220.405C491.773 221.493 491.411 222.564 490.998 223.615C488.21 230.362 483.564 238.85 478.969 244.998C476.75 244.835 473.91 243.91 471.122 242.55C472.017 241.824 472.895 241.063 473.755 240.265C476.233 238.034 478.608 235.694 480.88 233.3C483.254 230.797 485.578 228.295 487.694 225.629C488.968 224.033 490.189 222.4 491.36 220.732C491.704 220.26 492.048 219.771 492.392 219.263Z" fill="#035AE0" fill-opacity="0.5"/>
</g>
<g style="mix-blend-mode:multiply">
<path d="M450.369 189.827C451.35 187.325 460.281 184.278 466.682 183.135C467.56 182.972 468.696 182.917 469.109 183.57C469.47 184.06 464.411 195.921 452.744 195.432C451.092 195.377 449.336 192.385 450.369 189.827Z" fill="#FFC9B0"/>
</g>
<path d="M455.273 186.998L469.47 184.822L471.019 197.173C471.122 198.043 470.864 198.914 470.296 199.621C469.109 201.199 466.528 203.702 462.294 204.246C457.958 204.79 457.39 202.668 457.441 201.362C457.493 200.165 457.39 198.914 457.183 197.717L455.273 186.998Z" fill="#FFC9B0"/>
<path d="M482.738 174.701C482.17 176.007 480.518 178.292 478.918 178.238C479.847 178.782 481.138 179.381 480.467 180.741C479.847 181.992 477.731 182.373 476.44 182.373C475.356 182.319 474.53 181.829 473.549 181.448C473.601 181.829 474.065 182.21 473.962 182.645C473.859 183.407 472.929 183.189 472.413 183.026C470.968 182.591 469.574 181.23 468.903 179.816C468.438 178.836 466.012 172.579 471.123 168.879C473.239 167.356 475.562 168.499 476.595 170.621C476.905 171.273 477.008 172.144 477.524 172.688C478.092 173.287 479.021 173.341 479.744 173.341C480.776 173.395 483.461 172.96 482.738 174.701Z" fill="#223655"/>
<path d="M437.204 144.722C438.495 145.701 439.424 147.116 440.044 148.585C440.87 150.543 441.231 152.665 441.541 154.787C441.851 157.018 442.16 159.358 441.128 161.371C440.87 161.915 440.457 162.459 439.837 162.677C438.96 163.058 437.979 162.677 437.153 162.241C435.759 161.588 434.417 160.718 433.591 159.358C433.023 158.433 432.816 157.29 432.661 156.202C432.352 153.699 432.403 151.142 432.816 148.639C432.971 147.605 433.229 146.626 433.745 145.755C434.623 144.286 435.862 143.688 437.204 144.722Z" fill="#223655"/>
<path d="M455.893 191.677C447.426 193.853 442.832 191.677 440.354 188.684C440.182 188.431 440.009 188.195 439.837 187.977C437.514 184.604 435.604 177.095 435.036 174.212C435.002 173.958 434.95 173.704 434.881 173.45C434.916 173.414 434.916 173.377 434.881 173.341C434.21 169.26 433.952 164.744 434.107 160.065C434.778 140.151 450.627 131.555 464.153 138.138C469.212 140.587 473.601 145.211 476.182 150.816C476.354 151.251 476.543 151.686 476.75 152.121C484.803 172.144 472 187.596 455.893 191.677Z" fill="#FFC9B0"/>
<g opacity="0.2">
<path d="M441.954 187.542C441.593 188.086 441.025 188.467 440.354 188.685C440.182 188.431 440.01 188.195 439.838 187.978C437.514 184.604 435.604 177.096 435.036 174.212C435.002 173.958 434.95 173.704 434.882 173.45C436.017 173.559 436.998 174.266 437.773 175.028C440.457 177.64 442.161 181.068 442.471 184.659C442.574 185.638 442.574 186.726 441.954 187.542Z" fill="#035AE0"/>
<path d="M460.798 185.311C459.301 184.278 458.371 182.319 458.216 180.306C458.113 178.347 458.629 176.388 459.455 174.701C460.54 172.362 462.192 170.294 464.411 169.369C466.631 168.499 469.471 169.043 470.968 171.165C474.065 175.354 470.606 181.013 467.612 183.788C467.44 183.933 467.251 184.096 467.044 184.278C465.289 185.692 462.863 186.726 460.798 185.311Z" fill="#035AE0"/>
</g>
<path d="M484.906 156.528C484.648 158.215 484.287 159.902 483.874 161.534C483.719 162.133 482.996 165.996 482.48 166.213C482.274 166.286 482.05 166.322 481.809 166.322C481.344 166.268 480.931 165.996 480.57 165.615C479.847 164.908 479.176 163.983 477.989 164.146C476.337 164.363 475.098 168.335 473.394 168.39C471.329 168.444 470.503 166.377 469.935 164.309C470.038 162.187 469.832 161.099 470.4 156.583C470.451 156.42 470.451 156.311 470.451 156.148C470.348 155.966 470.245 155.803 470.141 155.658C468.902 153.808 466.734 153.101 464.876 152.121C463.585 151.414 462.604 150.38 461.572 149.455C460.384 148.367 459.3 147.061 458.681 145.538C458.009 144.069 457.7 142.382 457.235 140.859C454.757 143.96 451.453 146.735 447.891 148.476C445.413 149.673 442.625 150.87 439.94 151.577C437.875 152.121 434.623 152.665 432.816 151.088C431.164 149.618 431.216 147.442 431.629 145.375C432.248 142.328 434.262 140.26 436.533 138.247C442.728 132.915 450.679 129.324 458.835 128.888C460.591 128.78 462.398 128.834 464.205 129.106C466.528 129.378 468.851 129.977 471.019 130.902C471.776 131.228 472.516 131.573 473.239 131.935C473.807 132.262 474.375 132.588 474.891 132.969C476.75 134.112 478.505 135.635 480.002 137.376C482.273 139.934 483.977 142.981 484.7 146.245C484.734 146.281 484.752 146.318 484.752 146.354C485.474 149.727 485.371 153.155 484.906 156.528Z" fill="#223655"/>
<path d="M480.002 137.376C478.66 137.921 476.44 136.343 475.304 136.125C472.103 135.527 475.562 140.315 475.253 141.512C474.891 142.872 473.239 142.926 472.155 142.763C470.297 142.6 469.367 141.294 467.818 140.532C466.631 139.988 465.495 140.587 465.134 141.892C464.927 142.817 466.012 145.211 465.392 145.864C464.411 146.789 461.778 145.266 461.056 144.613C459.765 143.362 458.784 141.022 459.507 139.226C459.662 138.628 461.159 138.465 461.727 138.138C462.966 137.485 464.05 136.615 465.289 135.962C466.992 134.982 468.593 133.731 470.451 132.969C471.277 132.588 472.207 132.262 473.239 131.936C473.807 132.262 474.375 132.588 474.891 132.969C476.75 134.112 478.505 135.635 480.002 137.376Z" fill="#035AE0" fill-opacity="0.4"/>
<path d="M471.019 130.901C470.142 131.391 469.264 131.826 468.335 132.207C466.27 132.969 464.36 133.84 462.501 134.982C460.849 135.907 459.145 136.832 457.751 138.138C456.874 138.845 455.841 140.641 455.17 140.641C453.467 143.252 449.904 143.144 447.478 142.001C446.032 141.294 445.671 140.205 447.271 139.335C449.078 138.356 451.298 138.41 453.157 137.485C454.602 136.778 455.893 135.581 455.325 133.84C455.015 132.751 453.776 131.119 455.583 130.684C456.977 130.412 458.577 131.772 459.92 132.044C461.159 132.262 461.778 131.99 462.501 130.956C463.069 130.14 463.43 129.541 464.205 129.106C466.528 129.378 468.851 129.977 471.019 130.901Z" fill="#035AE0" fill-opacity="0.4"/>
<path d="M441.593 170.892C441.799 172.307 441.283 173.559 440.457 173.722C439.579 173.831 438.753 172.797 438.495 171.382C438.288 169.967 438.805 168.662 439.631 168.553C440.508 168.39 441.386 169.478 441.593 170.892Z" fill="#223655"/>
<path d="M459.3 168.444C459.507 169.968 458.887 171.274 457.906 171.437C456.925 171.6 455.944 170.512 455.738 169.043C455.48 167.574 456.099 166.214 457.08 166.05C458.061 165.942 459.042 166.975 459.3 168.444Z" fill="#223655"/>
<path d="M446.032 180.36C449.956 180.523 454.447 178.619 456.667 175.246C456.77 175.082 456.564 174.919 456.409 175.028C454.963 176.388 453.466 177.585 451.711 178.456C449.956 179.326 447.994 179.816 446.032 179.979C445.774 179.979 445.774 180.36 446.032 180.36Z" fill="#035AE0"/>
<path d="M446.136 176.769C445.103 176.66 444.071 176.116 443.606 175.137C443.193 174.266 443.296 173.178 443.916 172.471C444.277 172.035 444.69 171.872 445.155 171.709C445.361 171.6 445.671 171.491 445.774 171.274C445.981 170.893 445.671 170.294 445.568 169.913C445.327 169.188 445.086 168.463 444.845 167.737C444.638 167.084 444.38 166.377 444.329 165.67C444.277 165.452 444.587 165.398 444.69 165.561C445.413 166.703 445.723 168.172 446.084 169.478C446.342 170.349 446.858 171.383 445.877 172.035C445.464 172.253 445 172.308 444.638 172.58C444.174 172.906 443.916 173.505 443.916 174.049C443.864 175.354 445 176.225 446.136 176.551C446.29 176.551 446.29 176.769 446.136 176.769Z" fill="#035AE0"/>
<path d="M441.231 159.303C441.541 160.119 440.405 160.011 438.701 160.5C437.049 160.99 436.946 162.568 436.43 162.513C435.914 162.405 436.017 159.684 438.185 158.759C439.837 158.052 441.025 158.759 441.231 159.303Z" fill="#223655"/>
<path d="M455.996 155.821C458.784 155.876 460.436 157.943 460.178 158.542C459.92 159.195 458.268 157.454 455.944 157.617C453.621 157.78 451.556 158.106 451.711 157.345C451.814 156.855 453.208 155.767 455.996 155.821Z" fill="#223655"/>
<path d="M473.859 165.615C475.098 162.35 477.627 159.739 481.241 160.881C482.429 161.262 483.306 162.35 483.719 163.547C484.132 164.69 484.132 165.996 483.926 167.247C483.461 170.403 481.912 173.45 479.279 175.191C478.298 175.844 477.059 176.334 475.924 175.898C474.427 175.354 473.652 173.613 473.291 172.144C472.826 170.294 473.084 167.846 473.859 165.615Z" fill="#FFC9B0"/>
<g style="mix-blend-mode:multiply" opacity="0.3">
<path d="M477.937 162.623C477.059 163.547 476.543 164.853 475.717 165.724C475.098 166.377 474.736 167.356 473.704 166.268C473.704 166.232 473.704 166.214 473.704 166.214C473.738 166.032 473.79 165.833 473.859 165.615C474.994 162.568 477.318 160.065 480.57 160.718C479.589 161.099 478.711 161.806 477.937 162.623Z" fill="#FFC9B0"/>
</g>
<path d="M482.016 164.962C482.067 165.071 481.861 165.18 481.809 165.071C481.448 164.472 480.57 164.255 479.899 164.472C479.537 164.581 479.176 164.799 478.918 165.125C480.209 166.703 480.312 169.152 479.124 170.838C479.073 170.893 478.918 170.838 478.97 170.729C479.279 169.805 479.486 168.825 479.434 167.846C479.383 166.975 479.124 166.159 478.66 165.452C478.488 165.669 478.35 165.887 478.247 166.105C477.421 167.574 476.801 169.26 476.801 170.947C476.801 171.11 476.44 171.11 476.44 170.947C476.388 169.913 476.492 168.88 476.801 167.9C477.111 166.975 477.472 166.05 477.989 165.234C478.505 164.418 479.331 163.765 480.26 163.656C480.673 163.656 481.086 163.765 481.448 163.983C481.757 164.255 481.912 164.581 482.016 164.962Z" fill="#035AE0"/>
<path d="M191.931 443.81H187.027L203.547 268.068H217.176L191.931 443.81Z" fill="#223655"/>
<path d="M440.767 268.068H454.396L470.916 443.81H466.011L440.767 268.068Z" fill="#223655"/>
<path d="M462.088 252.779V271.985H195.855V252.779H462.088Z" fill="#5585CB"/>
<g style="mix-blend-mode:multiply" opacity="0.5">
<path d="M462.088 260.287H195.855V252.779H462.088V260.287Z" fill="#035AE0"/>
</g>
<path d="M467.922 256.751H190.021V247.229H467.922V256.751Z" fill="#035AE0"/>
<path d="M280.985 184.821H353.468C354.861 184.821 356.152 185.746 356.668 187.161L376.131 241.951H298.073L278.869 188.031C278.352 186.508 279.436 184.821 280.985 184.821Z" fill="#035AE0" fill-opacity="0.8"/>
<path d="M295.389 241.951H410.72V247.664H295.389V241.951Z" fill="#035AE0" fill-opacity="0.8"/>
<path d="M396.988 246.902C399.931 246.25 405.609 244.78 408.81 241.951H410.72V247.664H392.755C394.2 247.447 395.611 247.193 396.988 246.902Z" fill="#035AE0" fill-opacity="0.5"/>
<path d="M295.389 241.951H373.498V247.664H295.389V241.951Z" fill="#035AE0" fill-opacity="0.5"/>
<g style="mix-blend-mode:multiply">
<path opacity="0.8" d="M342.678 243.692H365.135V246.141H342.678V243.692Z" fill="#035AE0" fill-opacity="0.5"/>
<path opacity="0.8" d="M297.918 243.692H303.133V246.141H297.918V243.692Z" fill="#035AE0" fill-opacity="0.5"/>
<path opacity="0.8" d="M304.836 243.692H309.999V246.141H304.836V243.692Z" fill="#035AE0" fill-opacity="0.5"/>
</g>
<path d="M278.352 184.821H350.835C352.229 184.821 353.519 185.746 354.035 187.161L373.498 241.951H295.389L276.236 188.031C275.668 186.508 276.752 184.821 278.352 184.821Z" fill="#035AE0" fill-opacity="0.5"/>
<path opacity="0.5" d="M278.352 184.821H339.425C309.689 185.637 293.84 186.562 287.748 187.542C281.656 188.467 277.526 189.881 278.61 194.615L276.236 188.031C275.668 186.508 276.752 184.821 278.352 184.821Z" fill="#035AE0" fill-opacity="0.8"/>
<g style="mix-blend-mode:multiply" opacity="0.3">
<path d="M295.027 237.435C310.98 242.006 331.475 240.863 344.227 228.512C351.041 221.983 354.294 211.972 354.19 202.396C354.087 197.009 353.158 190.371 350.783 184.821H350.835C352.229 184.821 353.519 185.746 354.035 187.161L373.498 241.951H295.389L293.633 237C294.115 237.145 294.58 237.29 295.027 237.435Z" fill="#035AE0" fill-opacity="0.5"/>
</g>
<g style="mix-blend-mode:multiply">
<path opacity="0.5" d="M368.8 243.257C369.626 243.257 370.297 243.91 370.297 244.78C370.297 245.651 369.626 246.358 368.8 246.358C367.974 246.358 367.303 245.651 367.303 244.78C367.303 243.91 367.974 243.257 368.8 243.257Z" fill="#035AE0" fill-opacity="0.5"/>
<path opacity="0.8" d="M368.8 243.747C369.317 243.747 369.781 244.236 369.781 244.78C369.781 245.379 369.317 245.869 368.8 245.869C368.232 245.869 367.768 245.379 367.768 244.78C367.768 244.236 368.232 243.747 368.8 243.747Z" fill="#035AE0" fill-opacity="0.5"/>
</g>
<path d="M333.334 223.506L327.81 218.827C327.293 218.392 326.674 218.229 326.106 218.337L320.427 219.643C319.033 219.97 317.536 218.337 317.846 216.923L319.136 210.938C319.24 210.339 319.085 209.686 318.672 209.142L314.284 203.32C313.251 201.906 313.922 200.219 315.419 200.437L321.718 201.362C322.337 201.47 322.854 201.253 323.163 200.763L326.158 195.812C326.88 194.669 328.842 195.213 329.462 196.791L332.043 203.375C332.249 204.028 332.766 204.572 333.385 204.844L339.58 207.619C341.077 208.272 341.645 210.285 340.509 211.047L335.812 214.202C335.347 214.474 335.14 215.073 335.192 215.671L336.07 222.309C336.276 223.887 334.624 224.594 333.334 223.506Z" fill="#414379"/>
<path d="M333.282 221.167L327.345 216.107C327.19 215.998 326.984 215.889 326.777 215.944L320.582 217.413C320.117 217.521 319.601 216.923 319.704 216.433L321.15 209.958C321.202 209.795 321.098 209.523 320.995 209.36L316.246 203.048C315.884 202.613 316.142 202.015 316.659 202.124L323.473 203.103C323.628 203.157 323.835 203.048 323.938 202.885L327.19 197.608C327.448 197.172 328.068 197.39 328.326 197.934L331.114 205.007C331.165 205.225 331.372 205.442 331.578 205.497L338.29 208.489C338.806 208.761 338.961 209.414 338.599 209.686L333.54 213.06C333.385 213.169 333.282 213.386 333.334 213.604L334.211 220.732C334.315 221.276 333.747 221.548 333.282 221.167Z" fill="#FFD102"/>
<path d="M329.41 212.788L327.345 211.047C327.276 211.01 327.207 210.992 327.139 210.992L325.022 211.482C324.867 211.536 324.66 211.319 324.712 211.156L325.177 208.925C325.211 208.852 325.194 208.78 325.125 208.707L323.525 206.531C323.37 206.368 323.473 206.15 323.628 206.204L326.003 206.531C326.072 206.567 326.123 206.549 326.158 206.476L327.293 204.626C327.397 204.518 327.603 204.572 327.706 204.735L328.636 207.238C328.67 207.311 328.722 207.365 328.791 207.401L331.165 208.435C331.32 208.49 331.372 208.762 331.269 208.816L329.513 210.013C329.444 210.049 329.41 210.104 329.41 210.176L329.72 212.679C329.771 212.842 329.565 212.951 329.41 212.788Z" fill="white"/>
<path d="M317.226 212.679C322.182 212.352 327.551 216.977 329.152 222.962C330.752 228.947 328.068 234.062 323.112 234.334C318.156 234.606 312.838 229.981 311.186 223.996C309.586 218.011 312.27 212.951 317.226 212.679Z" fill="white"/>
<path d="M317.794 214.637C321.821 214.42 326.209 218.174 327.5 223.071C328.842 227.968 326.622 232.103 322.595 232.32C318.517 232.593 314.18 228.784 312.838 223.887C311.496 218.99 313.716 214.855 317.794 214.637Z" fill="#035AE0"/>
<path d="M324.97 223.942C324.402 224.105 323.783 223.724 323.421 223.289C322.75 222.527 322.131 221.711 321.511 220.895C321.718 222.255 322.131 223.561 321.976 224.921C321.924 225.574 320.995 225.792 320.788 225.084C320.513 224.105 320.152 223.162 319.704 222.255C319.498 221.82 319.24 221.33 318.93 220.949C318.93 220.895 318.827 220.84 318.775 220.732V220.786C318.775 220.895 318.775 221.004 318.775 221.112C318.723 223.017 319.24 224.758 319.756 226.499C319.859 227.007 319.98 227.496 320.117 227.968C320.221 228.349 320.375 228.784 320.324 229.165C320.221 229.927 319.549 230.144 318.93 229.927C318.31 229.709 317.794 229.056 317.381 228.512C316.865 227.914 316.452 227.261 316.142 226.499C315.678 225.411 314.955 223.561 316.039 222.581C316.297 222.309 316.658 222.69 316.452 223.017C315.936 223.615 316.4 224.758 316.658 225.411C316.968 226.227 317.433 226.989 317.949 227.696C318.19 227.95 318.448 228.204 318.723 228.458C318.827 228.567 318.982 228.73 319.085 228.784C319.119 228.82 319.154 228.839 319.188 228.839C319.033 228.512 318.982 228.022 318.827 227.642C318.689 227.243 318.569 226.825 318.465 226.39C317.949 224.758 317.536 223.071 317.536 221.33C317.536 220.623 317.536 219.698 318.31 219.426C318.982 219.099 319.601 219.643 319.962 220.187C320.066 220.369 320.169 220.532 320.272 220.677C320.169 220.079 320.117 219.426 320.221 218.827C320.272 218.338 320.995 218.174 321.253 218.555C321.941 219.462 322.647 220.351 323.37 221.221C323.68 221.656 324.454 223.18 325.177 222.581C325.383 222.418 325.59 222.473 325.693 222.745C325.951 223.289 325.486 223.833 324.97 223.942Z" fill="#FFD102"/>
<path d="M256.979 201.035C253.83 198.315 253.572 193.2 254.656 189.392C255.224 187.433 255.792 185.365 256.05 183.298C256.257 181.666 256.411 179.761 255.844 178.129C256.257 178.891 256.773 179.38 257.186 180.088C257.857 181.23 258.27 182.427 258.683 183.679C259.302 185.637 259.767 187.542 259.767 189.609C259.767 191.568 259.302 193.527 258.993 195.431C258.786 196.737 258.631 198.043 258.218 199.294C258.115 199.675 257.496 201.471 256.979 201.035Z" fill="#035AE0" fill-opacity="0.8"/>
<path d="M254.14 201.362C250.371 199.729 247.635 197.118 246.344 193.418C245.725 191.786 245.363 190.153 245.105 188.467C244.95 187.651 244.744 186.78 244.692 185.964C244.744 186.399 245.105 186.834 245.415 187.161C246.035 187.868 246.757 188.521 247.48 189.12C248.254 189.827 249.029 190.534 249.906 191.133C250.784 191.786 251.817 192.439 252.643 193.2C254.295 194.778 255.637 196.737 256.205 199.022C256.411 199.838 256.308 200.926 255.998 201.199C255.585 201.579 254.811 201.634 254.14 201.362Z" fill="#035AE0" fill-opacity="0.8"/>
<path d="M256.876 200.926C256.256 200.001 257.186 198.26 257.702 197.553C258.889 195.757 260.696 194.343 262.451 193.309C264.465 192.221 266.633 191.459 268.75 190.643C269.679 190.317 270.66 190.044 271.434 189.446C271.847 189.12 272.518 188.684 272.622 188.14C272.622 190.589 270.918 192.765 269.473 194.56C267.975 196.41 266.323 197.825 264.207 198.859C262.968 199.457 261.729 200.001 260.386 200.491C259.664 200.763 258.889 201.035 258.115 201.035C257.65 201.09 257.082 201.307 256.876 200.926Z" fill="#035AE0" fill-opacity="0.8"/>
<path d="M271.589 173.014C270.144 175.408 268.492 177.585 267.046 179.979C265.635 182.264 264.362 184.622 263.226 187.052C260.8 192.058 259.044 197.335 257.444 202.668C257.392 202.885 257.082 202.831 257.134 202.613C258.167 197.118 260.077 191.731 262.4 186.726C263.639 184.15 264.998 181.647 266.478 179.217C267.872 176.932 269.318 174.647 271.176 172.688C271.383 172.47 271.744 172.742 271.589 173.014Z" fill="#035AE0"/>
<path d="M255.998 203.157C255.998 203.43 255.585 203.43 255.585 203.157C255.069 198.152 254.708 193.255 253.417 188.412C252.23 183.842 250.526 179.489 247.842 175.681C247.738 175.517 247.945 175.409 248.048 175.517C251.197 178.836 252.952 183.516 254.192 187.977C255.585 192.765 256.515 198.097 255.998 203.157Z" fill="#035AE0"/>
<path d="M246.912 179.38C246.138 179.435 245.157 179.108 244.486 178.619C243.918 178.238 243.66 177.53 243.453 176.823C243.195 176.007 242.782 175.463 242.111 174.864C241.285 174.157 240.407 173.613 239.272 173.45C239.065 173.395 238.497 173.504 238.446 173.178C238.342 172.851 239.22 172.307 239.478 172.198C240.201 171.817 241.079 171.6 241.853 171.6C242.472 171.6 243.092 171.981 243.66 171.872C243.04 171.382 242.576 170.348 242.524 169.532C242.472 168.77 242.731 167.138 243.557 166.866C244.176 166.648 244.124 167.628 244.228 168.063C244.383 168.825 244.641 170.022 245.209 170.512C245.209 169.369 245.828 167.682 246.964 167.301C247.015 168.009 246.499 168.879 246.757 169.641C246.964 169.151 247.222 168.77 247.635 168.444C247.841 168.226 248.254 167.791 248.564 167.791C248.358 168.281 248.358 168.988 248.306 169.532C248.254 170.729 249.184 171.219 249.907 171.981C250.268 172.361 250.733 172.688 250.991 173.232C251.352 173.994 251.352 175.082 251.249 175.898C251.042 177.367 249.855 179.326 246.912 179.38Z" fill="#035AE0"/>
<path d="M276.494 169.587C276.184 169.804 275.874 170.022 275.616 170.348C275.978 170.348 276.442 170.185 276.752 170.403C277.217 170.675 276.7 170.784 276.494 170.838C276.132 170.947 275.771 171.056 275.616 171.382C275.513 171.545 275.513 171.763 275.565 171.926C275.616 173.123 275.668 174.211 275.152 175.354C274.016 177.857 271.125 177.367 269.163 176.279C268.853 176.098 268.561 175.88 268.285 175.626C267.304 174.81 266.478 173.504 266.582 172.089C266.633 171.382 266.891 170.675 267.356 170.131C267.666 169.75 268.027 169.423 268.44 169.151C269.06 168.77 269.576 168.607 269.782 167.791C269.937 167.138 269.834 166.485 269.782 165.832C269.782 165.669 269.731 165.288 269.886 165.179C270.041 165.016 270.454 165.125 270.66 165.234C270.97 165.343 271.228 165.669 271.434 165.941C271.847 166.54 272.002 167.247 272.364 167.845C272.519 167.084 273.809 166.376 274.48 166.485C274.532 166.812 274.274 167.138 274.171 167.356C274.067 167.519 273.706 168.118 273.809 168.281C273.861 168.498 274.171 168.335 274.377 168.281C274.893 168.172 275.461 168.118 275.978 168.281C276.236 168.335 277.733 168.553 277.63 169.043C277.578 169.206 277.32 169.26 277.165 169.26C276.907 169.369 276.7 169.478 276.494 169.587Z" fill="#035AE0"/>
<path d="M269.369 236.674C267.769 239.557 263.949 242.876 263.949 246.195H250.216C250.216 242.876 246.396 239.557 244.796 236.674C243.04 233.518 242.008 229.873 242.008 226.445C242.008 221.221 244.331 217.739 247.996 215.726C250.423 214.42 252.023 211.917 252.023 209.034V200.818H262.142V209.034C262.142 211.917 263.742 214.42 266.169 215.726C269.782 217.739 272.157 221.221 272.157 226.445C272.157 229.873 271.125 233.518 269.369 236.674Z" fill="#FFD102"/>
<path d="M262.555 202.178H251.559C251.249 202.178 250.939 201.906 250.939 201.525V200.927C250.939 200.546 251.249 200.219 251.559 200.219H262.555C262.916 200.219 263.226 200.546 263.226 200.927V201.525C263.226 201.906 262.916 202.178 262.555 202.178Z" fill="#F59711"/>
<path d="M264.93 246.141V246.739C264.93 247.12 264.672 247.392 264.31 247.392H249.855C249.494 247.392 249.184 247.12 249.184 246.739V246.141C249.184 245.814 249.494 245.488 249.855 245.488H264.31C264.672 245.488 264.93 245.814 264.93 246.141Z" fill="#F59711"/>
<ellipse cx="727" cy="120" rx="8" ry="8" fill="#8526D0"/>
<ellipse cx="638" cy="170" rx="4" ry="4" fill="#E43CB5"/>
<ellipse cx="6" cy="501" rx="6" ry="6" fill="#FFBB38"/>
<path fill-rule="evenodd" clip-rule="evenodd" d="M653.505 338.94C661.474 338.902 667.925 332.437 667.94 324.462C667.955 332.312 674.204 338.698 682 338.934L681.999 338.947C674.343 339.179 668.179 345.343 667.947 353C667.942 353 667.938 353 667.933 353C667.698 345.218 661.335 338.978 653.505 338.94ZM653.363 338.94C653.241 338.94 653.12 338.938 653 338.934C653 338.938 653 338.942 653 338.946C653.121 338.943 653.242 338.941 653.363 338.94ZM667.947 324C667.943 324.135 667.94 324.27 667.94 324.406C667.94 324.27 667.938 324.135 667.934 324L667.947 324Z" fill="#035AE0"/>
<path fill-rule="evenodd" clip-rule="evenodd" d="M251.331 9.7884C256.553 9.76342 260.78 5.52657 260.789 0.300443C260.797 5.44416 264.892 9.62955 270 9.78409L270 9.79272C264.984 9.94461 260.945 13.9835 260.793 18.9997C260.79 18.9998 260.787 18.9999 260.784 19C260.63 13.9017 256.461 9.81293 251.331 9.7884ZM251.238 9.7884C251.158 9.78802 251.079 9.78666 251 9.78434C251 9.78704 251 9.78975 251 9.79245C251.079 9.79013 251.158 9.78878 251.238 9.7884ZM260.793 0.000243536C260.79 0.0892705 260.789 0.178609 260.789 0.268235C260.788 0.178526 260.787 0.0891092 260.784 0L260.793 0.000243536Z" fill="#EC7D17"/>
</svg>
