<svg width="1918" height="802" viewBox="0 0 1918 802" fill="none" xmlns="http://www.w3.org/2000/svg">
<path d="M1 711L98.1388 581.987C113.806 561.18 144.864 560.657 161.222 580.927L210.227 641.651C227.057 662.506 259.234 661.235 274.367 639.117L309.385 587.937C325.023 565.082 358.593 564.648 374.816 587.092L444.5 683.5M1 721L98.1388 591.987C113.806 571.18 144.864 570.657 161.222 590.927L210.227 651.651C227.057 672.506 259.234 671.235 274.367 649.117L309.385 597.937C325.023 575.082 358.593 574.648 374.816 597.092L444.5 693.5M1 731L98.1388 601.987C113.806 581.18 144.864 580.657 161.222 600.927L210.227 661.651C227.057 682.506 259.234 681.235 274.367 659.117L309.385 607.937C325.023 585.082 358.593 584.648 374.816 607.092L444.5 703.5M1 741L98.1388 611.987C113.806 591.18 144.864 590.657 161.222 610.927L210.227 671.651C227.057 692.506 259.234 691.235 274.367 669.117L309.385 617.937C325.023 595.082 358.593 594.648 374.816 617.092L444.5 713.5M1 751L98.1388 621.987C113.806 601.18 144.864 600.657 161.222 620.927L210.227 681.651C227.057 702.506 259.234 701.235 274.367 679.117L309.385 627.937C325.023 605.082 358.593 604.648 374.816 627.092L444.5 723.5M1 761L98.1388 631.987C113.806 611.18 144.864 610.657 161.222 630.927L210.227 691.651C227.057 712.506 259.234 711.235 274.367 689.117L309.385 637.937C325.023 615.082 358.593 614.648 374.816 637.092L444.5 733.5M1 771L98.1388 641.987C113.806 621.18 144.864 620.657 161.222 640.927L210.227 701.651C227.057 722.506 259.234 721.235 274.367 699.117L309.385 647.937C325.023 625.082 358.593 624.648 374.816 647.092L444.5 743.5M1 781L98.1388 651.987C113.806 631.18 144.864 630.657 161.222 650.927L210.227 711.651C227.057 732.506 259.234 731.235 274.367 709.117L309.385 657.937C325.023 635.082 358.593 634.648 374.816 657.092L444.5 753.5M1 791L98.1388 661.987C113.806 641.18 144.864 640.657 161.222 660.927L210.227 721.651C227.057 742.506 259.234 741.235 274.367 719.117L309.385 667.937C325.023 645.082 358.593 644.648 374.816 667.092L444.5 763.5M1 801L98.1388 671.987C113.806 651.18 144.864 650.657 161.222 670.927L210.227 731.651C227.057 752.506 259.234 751.235 274.367 729.117L309.385 677.937C325.023 655.082 358.593 654.648 374.816 677.092L444.5 773.5" stroke="url(#paint0_linear_684_5950)" stroke-opacity="0.2"/>
<path d="M491 711L588.139 581.987C603.806 561.18 634.864 560.657 651.222 580.927L700.227 641.651C717.057 662.506 749.234 661.235 764.367 639.117L799.385 587.937C815.023 565.082 848.593 564.648 864.816 587.092L934.5 683.5M491 721L588.139 591.987C603.806 571.18 634.864 570.657 651.222 590.927L700.227 651.651C717.057 672.506 749.234 671.235 764.367 649.117L799.385 597.937C815.023 575.082 848.593 574.648 864.816 597.092L934.5 693.5M491 731L588.139 601.987C603.806 581.18 634.864 580.657 651.222 600.927L700.227 661.651C717.057 682.506 749.234 681.235 764.367 659.117L799.385 607.937C815.023 585.082 848.593 584.648 864.816 607.092L934.5 703.5M491 741L588.139 611.987C603.806 591.18 634.864 590.657 651.222 610.927L700.227 671.651C717.057 692.506 749.234 691.235 764.367 669.117L799.385 617.937C815.023 595.082 848.593 594.648 864.816 617.092L934.5 713.5M491 751L588.139 621.987C603.806 601.18 634.864 600.657 651.222 620.927L700.227 681.651C717.057 702.506 749.234 701.235 764.367 679.117L799.385 627.937C815.023 605.082 848.593 604.648 864.816 627.092L934.5 723.5M491 761L588.139 631.987C603.806 611.18 634.864 610.657 651.222 630.927L700.227 691.651C717.057 712.506 749.234 711.235 764.367 689.117L799.385 637.937C815.023 615.082 848.593 614.648 864.816 637.092L934.5 733.5M491 771L588.139 641.987C603.806 621.18 634.864 620.657 651.222 640.927L700.227 701.651C717.057 722.506 749.234 721.235 764.367 699.117L799.385 647.937C815.023 625.082 848.593 624.648 864.816 647.092L934.5 743.5M491 781L588.139 651.987C603.806 631.18 634.864 630.657 651.222 650.927L700.227 711.651C717.057 732.506 749.234 731.235 764.367 709.117L799.385 657.937C815.023 635.082 848.593 634.648 864.816 657.092L934.5 753.5M491 791L588.139 661.987C603.806 641.18 634.864 640.657 651.222 660.927L700.227 721.651C717.057 742.506 749.234 741.235 764.367 719.117L799.385 667.937C815.023 645.082 848.593 644.648 864.816 667.092L934.5 763.5M491 801L588.139 671.987C603.806 651.18 634.864 650.657 651.222 670.927L700.227 731.651C717.057 752.506 749.234 751.235 764.367 729.117L799.385 677.937C815.023 655.082 848.593 654.648 864.816 677.092L934.5 773.5" stroke="url(#paint1_linear_684_5950)" stroke-opacity="0.2"/>
<path d="M981 711L1078.14 581.987C1093.81 561.18 1124.86 560.657 1141.22 580.927L1190.23 641.651C1207.06 662.506 1239.23 661.235 1254.37 639.117L1289.39 587.937C1305.02 565.082 1338.59 564.648 1354.82 587.092L1424.5 683.5M981 721L1078.14 591.987C1093.81 571.18 1124.86 570.657 1141.22 590.927L1190.23 651.651C1207.06 672.506 1239.23 671.235 1254.37 649.117L1289.39 597.937C1305.02 575.082 1338.59 574.648 1354.82 597.092L1424.5 693.5M981 731L1078.14 601.987C1093.81 581.18 1124.86 580.657 1141.22 600.927L1190.23 661.651C1207.06 682.506 1239.23 681.235 1254.37 659.117L1289.39 607.937C1305.02 585.082 1338.59 584.648 1354.82 607.092L1424.5 703.5M981 741L1078.14 611.987C1093.81 591.18 1124.86 590.657 1141.22 610.927L1190.23 671.651C1207.06 692.506 1239.23 691.235 1254.37 669.117L1289.39 617.937C1305.02 595.082 1338.59 594.648 1354.82 617.092L1424.5 713.5M981 751L1078.14 621.987C1093.81 601.18 1124.86 600.657 1141.22 620.927L1190.23 681.651C1207.06 702.506 1239.23 701.235 1254.37 679.117L1289.39 627.937C1305.02 605.082 1338.59 604.648 1354.82 627.092L1424.5 723.5M981 761L1078.14 631.987C1093.81 611.18 1124.86 610.657 1141.22 630.927L1190.23 691.651C1207.06 712.506 1239.23 711.235 1254.37 689.117L1289.39 637.937C1305.02 615.082 1338.59 614.648 1354.82 637.092L1424.5 733.5M981 771L1078.14 641.987C1093.81 621.18 1124.86 620.657 1141.22 640.927L1190.23 701.651C1207.06 722.506 1239.23 721.235 1254.37 699.117L1289.39 647.937C1305.02 625.082 1338.59 624.648 1354.82 647.092L1424.5 743.5M981 781L1078.14 651.987C1093.81 631.18 1124.86 630.657 1141.22 650.927L1190.23 711.651C1207.06 732.506 1239.23 731.235 1254.37 709.117L1289.39 657.937C1305.02 635.082 1338.59 634.648 1354.82 657.092L1424.5 753.5M981 791L1078.14 661.987C1093.81 641.18 1124.86 640.657 1141.22 660.927L1190.23 721.651C1207.06 742.506 1239.23 741.235 1254.37 719.117L1289.39 667.937C1305.02 645.082 1338.59 644.648 1354.82 667.092L1424.5 763.5M981 801L1078.14 671.987C1093.81 651.18 1124.86 650.657 1141.22 670.927L1190.23 731.651C1207.06 752.506 1239.23 751.235 1254.37 729.117L1289.39 677.937C1305.02 655.082 1338.59 654.648 1354.82 677.092L1424.5 773.5" stroke="url(#paint2_linear_684_5950)" stroke-opacity="0.2"/>
<path d="M1471 711L1568.14 581.987C1583.81 561.18 1614.86 560.657 1631.22 580.927L1680.23 641.651C1697.06 662.506 1729.23 661.235 1744.37 639.117L1779.39 587.937C1795.02 565.082 1828.59 564.648 1844.82 587.092L1914.5 683.5M1471 721L1568.14 591.987C1583.81 571.18 1614.86 570.657 1631.22 590.927L1680.23 651.651C1697.06 672.506 1729.23 671.235 1744.37 649.117L1779.39 597.937C1795.02 575.082 1828.59 574.648 1844.82 597.092L1914.5 693.5M1471 731L1568.14 601.987C1583.81 581.18 1614.86 580.657 1631.22 600.927L1680.23 661.651C1697.06 682.506 1729.23 681.235 1744.37 659.117L1779.39 607.937C1795.02 585.082 1828.59 584.648 1844.82 607.092L1914.5 703.5M1471 741L1568.14 611.987C1583.81 591.18 1614.86 590.657 1631.22 610.927L1680.23 671.651C1697.06 692.506 1729.23 691.235 1744.37 669.117L1779.39 617.937C1795.02 595.082 1828.59 594.648 1844.82 617.092L1914.5 713.5M1471 751L1568.14 621.987C1583.81 601.18 1614.86 600.657 1631.22 620.927L1680.23 681.651C1697.06 702.506 1729.23 701.235 1744.37 679.117L1779.39 627.937C1795.02 605.082 1828.59 604.648 1844.82 627.092L1914.5 723.5M1471 761L1568.14 631.987C1583.81 611.18 1614.86 610.657 1631.22 630.927L1680.23 691.651C1697.06 712.506 1729.23 711.235 1744.37 689.117L1779.39 637.937C1795.02 615.082 1828.59 614.648 1844.82 637.092L1914.5 733.5M1471 771L1568.14 641.987C1583.81 621.18 1614.86 620.657 1631.22 640.927L1680.23 701.651C1697.06 722.506 1729.23 721.235 1744.37 699.117L1779.39 647.937C1795.02 625.082 1828.59 624.648 1844.82 647.092L1914.5 743.5M1471 781L1568.14 651.987C1583.81 631.18 1614.86 630.657 1631.22 650.927L1680.23 711.651C1697.06 732.506 1729.23 731.235 1744.37 709.117L1779.39 657.937C1795.02 635.082 1828.59 634.648 1844.82 657.092L1914.5 753.5M1471 791L1568.14 661.987C1583.81 641.18 1614.86 640.657 1631.22 660.927L1680.23 721.651C1697.06 742.506 1729.23 741.235 1744.37 719.117L1779.39 667.937C1795.02 645.082 1828.59 644.648 1844.82 667.092L1914.5 763.5M1471 801L1568.14 671.987C1583.81 651.18 1614.86 650.657 1631.22 670.927L1680.23 731.651C1697.06 752.506 1729.23 751.235 1744.37 729.117L1779.39 677.937C1795.02 655.082 1828.59 654.648 1844.82 677.092L1914.5 773.5" stroke="url(#paint3_linear_684_5950)" stroke-opacity="0.2"/>
<path d="M1623 146L1720.14 16.9873C1735.81 -3.82044 1766.86 -4.34267 1783.22 15.9266L1832.23 76.6505C1849.06 97.5057 1881.23 96.2348 1896.37 74.1172L1931.39 22.9367C1947.02 0.0817966 1980.59 -0.351564 1996.82 22.092L2066.5 118.5M1623 156L1720.14 26.9873C1735.81 6.17956 1766.86 5.65733 1783.22 25.9266L1832.23 86.6505C1849.06 107.506 1881.23 106.235 1896.37 84.1172L1931.39 32.9367C1947.02 10.0818 1980.59 9.64844 1996.82 32.092L2066.5 128.5M1623 166L1720.14 36.9873C1735.81 16.1796 1766.86 15.6573 1783.22 35.9266L1832.23 96.6505C1849.06 117.506 1881.23 116.235 1896.37 94.1172L1931.39 42.9367C1947.02 20.0818 1980.59 19.6484 1996.82 42.092L2066.5 138.5M1623 176L1720.14 46.9873C1735.81 26.1796 1766.86 25.6573 1783.22 45.9266L1832.23 106.651C1849.06 127.506 1881.23 126.235 1896.37 104.117L1931.39 52.9367C1947.02 30.0818 1980.59 29.6484 1996.82 52.092L2066.5 148.5M1623 186L1720.14 56.9873C1735.81 36.1796 1766.86 35.6573 1783.22 55.9266L1832.23 116.651C1849.06 137.506 1881.23 136.235 1896.37 114.117L1931.39 62.9367C1947.02 40.0818 1980.59 39.6484 1996.82 62.092L2066.5 158.5M1623 196L1720.14 66.9873C1735.81 46.1796 1766.86 45.6573 1783.22 65.9266L1832.23 126.651C1849.06 147.506 1881.23 146.235 1896.37 124.117L1931.39 72.9367C1947.02 50.0818 1980.59 49.6484 1996.82 72.092L2066.5 168.5M1623 206L1720.14 76.9873C1735.81 56.1796 1766.86 55.6573 1783.22 75.9266L1832.23 136.651C1849.06 157.506 1881.23 156.235 1896.37 134.117L1931.39 82.9367C1947.02 60.0818 1980.59 59.6484 1996.82 82.092L2066.5 178.5M1623 216L1720.14 86.9873C1735.81 66.1796 1766.86 65.6573 1783.22 85.9266L1832.23 146.651C1849.06 167.506 1881.23 166.235 1896.37 144.117L1931.39 92.9367C1947.02 70.0818 1980.59 69.6484 1996.82 92.092L2066.5 188.5M1623 226L1720.14 96.9873C1735.81 76.1796 1766.86 75.6573 1783.22 95.9266L1832.23 156.651C1849.06 177.506 1881.23 176.235 1896.37 154.117L1931.39 102.937C1947.02 80.0818 1980.59 79.6484 1996.82 102.092L2066.5 198.5M1623 236L1720.14 106.987C1735.81 86.1796 1766.86 85.6573 1783.22 105.927L1832.23 166.651C1849.06 187.506 1881.23 186.235 1896.37 164.117L1931.39 112.937C1947.02 90.0818 1980.59 89.6484 1996.82 112.092L2066.5 208.5" stroke="url(#paint4_linear_684_5950)" stroke-opacity="0.2"/>
<defs>
<linearGradient id="paint0_linear_684_5950" x1="1" y1="683.524" x2="444.5" y2="683.524" gradientUnits="userSpaceOnUse">
<stop stop-color="#035AE0" stop-opacity="0"/>
<stop offset="0.479167" stop-color="#035AE0"/>
<stop offset="1" stop-color="#035AE0" stop-opacity="0"/>
</linearGradient>
<linearGradient id="paint1_linear_684_5950" x1="491" y1="683.524" x2="934.5" y2="683.524" gradientUnits="userSpaceOnUse">
<stop stop-color="#035AE0" stop-opacity="0"/>
<stop offset="0.479167" stop-color="#035AE0"/>
<stop offset="1" stop-color="#035AE0" stop-opacity="0"/>
</linearGradient>
<linearGradient id="paint2_linear_684_5950" x1="981" y1="683.524" x2="1424.5" y2="683.524" gradientUnits="userSpaceOnUse">
<stop stop-color="#035AE0" stop-opacity="0"/>
<stop offset="0.479167" stop-color="#035AE0"/>
<stop offset="1" stop-color="#035AE0" stop-opacity="0"/>
</linearGradient>
<linearGradient id="paint3_linear_684_5950" x1="1471" y1="683.524" x2="1914.5" y2="683.524" gradientUnits="userSpaceOnUse">
<stop stop-color="#035AE0" stop-opacity="0"/>
<stop offset="0.479167" stop-color="#035AE0"/>
<stop offset="1" stop-color="#035AE0" stop-opacity="0"/>
</linearGradient>
<linearGradient id="paint4_linear_684_5950" x1="1623" y1="118.524" x2="2066.5" y2="118.524" gradientUnits="userSpaceOnUse">
<stop stop-color="#035AE0" stop-opacity="0"/>
<stop offset="0.479167" stop-color="#035AE0"/>
<stop offset="1" stop-color="#035AE0" stop-opacity="0"/>
</linearGradient>
</defs>
</svg>
