<svg width="1920" height="399" viewBox="0 0 1920 399" fill="none" xmlns="http://www.w3.org/2000/svg">
<path d="M0 122.802C0 122.802 146.383 306.31 288.174 306.31C609.753 306.31 669.086 14.5 962.5 14.5C1237.21 14.5 1462.31 290.569 1609.39 290.569C1756.47 290.569 1920 90.906 1920 90.906" stroke="#035AE0" stroke-opacity="0.1" stroke-width="2"/>
<path d="M0 131.087C0 131.087 146.383 314.594 288.174 314.594C609.753 314.594 674.586 24.5 968 24.5C1242.71 24.5 1462.31 298.854 1609.39 298.854C1756.47 298.854 1920 99.1906 1920 99.1906" stroke="#035AE0" stroke-opacity="0.1" stroke-width="2"/>
<path d="M0 139.371C0 139.371 146.383 322.879 288.174 322.879C609.753 322.879 679.086 35 972.5 35C1247.21 35 1462.31 307.138 1609.39 307.138C1756.47 307.138 1920 107.475 1920 107.475" stroke="#035AE0" stroke-opacity="0.1" stroke-width="2"/>
<path d="M0 147.656C0 147.656 146.383 331.164 288.174 331.164C609.753 331.164 679.586 43.5 973 43.5C1247.71 43.5 1462.31 315.423 1609.39 315.423C1756.47 315.423 1920 115.76 1920 115.76" stroke="#035AE0" stroke-opacity="0.1" stroke-width="2"/>
<path d="M0 155.94C0 155.94 146.383 339.448 288.174 339.448C609.753 339.448 681.086 51.5 974.5 51.5C1249.21 51.5 1462.31 323.707 1609.39 323.707C1756.47 323.707 1920 124.044 1920 124.044" stroke="#035AE0" stroke-opacity="0.1" stroke-width="2"/>
<path d="M0 164.225C0 164.225 146.383 347.733 288.174 347.733C609.753 347.733 684.586 59.5 978 59.5C1252.71 59.5 1462.31 331.992 1609.39 331.992C1756.47 331.992 1920 132.329 1920 132.329" stroke="#035AE0" stroke-opacity="0.1" stroke-width="2"/>
<path d="M0 172.51C0 172.51 146.383 356.017 288.174 356.017C609.753 356.017 689.586 67 983 67C1257.71 67 1462.31 340.276 1609.39 340.276C1756.47 340.276 1920 140.613 1920 140.613" stroke="#035AE0" stroke-opacity="0.1" stroke-width="2"/>
<path d="M0 180.794C0 180.794 146.383 364.302 288.174 364.302C609.753 364.302 685.586 76.5 979 76.5C1253.71 76.5 1462.31 348.561 1609.39 348.561C1756.47 348.561 1920 148.898 1920 148.898" stroke="#035AE0" stroke-opacity="0.1" stroke-width="2"/>
<path d="M0 189.079C0 189.079 146.383 372.587 288.174 372.587C609.753 372.587 685.086 83.5 978.5 83.5C1253.21 83.5 1462.31 356.846 1609.39 356.846C1756.47 356.846 1920 157.183 1920 157.183" stroke="#035AE0" stroke-opacity="0.1" stroke-width="2"/>
<path d="M0 197.364C0 197.364 146.383 380.871 288.174 380.871C609.753 380.871 685.586 92.5 979 92.5C1253.71 92.5 1462.31 365.13 1609.39 365.13C1756.47 365.13 1920 165.467 1920 165.467" stroke="#035AE0" stroke-opacity="0.1" stroke-width="2"/>
<path d="M552 399C552 346.603 562.553 294.718 583.057 246.309C603.561 197.9 633.614 153.915 671.5 116.864C709.387 79.8138 754.364 50.4237 803.865 30.3721C853.366 10.3204 906.421 0 960 0C1013.58 0 1066.63 10.3204 1116.13 30.3721C1165.64 50.4237 1210.61 79.8138 1248.5 116.864C1286.39 153.915 1316.44 197.9 1336.94 246.309C1357.45 294.718 1368 346.603 1368 399L552 399Z" fill="#035AE0" fill-opacity="0.05"/>
<path d="M0 0C-1.2973e-06 14.8394 2.92283 29.5334 8.60161 43.2432C14.2804 56.953 22.6039 69.41 33.0969 79.9031C43.5899 90.3961 56.047 98.7196 69.7568 104.398C83.4666 110.077 98.1606 113 113 113C127.839 113 142.533 110.077 156.243 104.398C169.953 98.7196 182.41 90.3961 192.903 79.9031C203.396 69.4101 211.72 56.953 217.398 43.2432C223.077 29.5334 226 14.8394 226 9.87877e-06L0 0Z" fill="#035AE0" fill-opacity="0.05"/>
<path d="M1920 399C1920 384.161 1917.08 369.467 1911.4 355.757C1905.72 342.047 1897.4 329.59 1886.9 319.097C1876.41 308.604 1863.95 300.28 1850.24 294.602C1836.53 288.923 1821.84 286 1807 286C1792.16 286 1777.47 288.923 1763.76 294.602C1750.05 300.28 1737.59 308.604 1727.1 319.097C1716.6 329.59 1708.28 342.047 1702.6 355.757C1696.92 369.467 1694 384.161 1694 399L1920 399Z" fill="#035AE0" fill-opacity="0.05"/>
<rect x="14.2145" y="286" width="3.1317" height="3.13172" transform="rotate(45 14.2145 286)" fill="#035AE0"/>
<rect x="33.4348" y="286" width="3.1317" height="3.13172" transform="rotate(45 33.4348 286)" fill="#035AE0"/>
<rect x="52.6553" y="286" width="3.1317" height="3.13172" transform="rotate(45 52.6553 286)" fill="#035AE0"/>
<rect x="71.8756" y="286" width="3.1317" height="3.13172" transform="rotate(45 71.8756 286)" fill="#035AE0"/>
<rect x="91.0961" y="286" width="3.1317" height="3.13172" transform="rotate(45 91.0961 286)" fill="#035AE0"/>
<rect x="110.316" y="286" width="3.1317" height="3.13172" transform="rotate(45 110.316 286)" fill="#035AE0"/>
<rect x="14.2145" y="303.549" width="3.1317" height="3.13172" transform="rotate(45 14.2145 303.549)" fill="#035AE0"/>
<rect x="14.2145" y="321.098" width="3.1317" height="3.13172" transform="rotate(45 14.2145 321.098)" fill="#035AE0"/>
<rect x="14.2145" y="338.647" width="3.1317" height="3.13172" transform="rotate(45 14.2145 338.647)" fill="#035AE0"/>
<rect x="14.2145" y="356.196" width="3.1317" height="3.13172" transform="rotate(45 14.2145 356.196)" fill="#035AE0"/>
<rect x="33.4348" y="303.549" width="3.1317" height="3.13172" transform="rotate(45 33.4348 303.549)" fill="#035AE0"/>
<rect x="33.4348" y="321.098" width="3.1317" height="3.13172" transform="rotate(45 33.4348 321.098)" fill="#035AE0"/>
<rect x="33.4348" y="338.647" width="3.1317" height="3.13172" transform="rotate(45 33.4348 338.647)" fill="#035AE0"/>
<rect x="33.4348" y="356.196" width="3.1317" height="3.13172" transform="rotate(45 33.4348 356.196)" fill="#035AE0"/>
<rect x="52.6553" y="303.549" width="3.1317" height="3.13172" transform="rotate(45 52.6553 303.549)" fill="#035AE0"/>
<rect x="52.6553" y="321.098" width="3.1317" height="3.13172" transform="rotate(45 52.6553 321.098)" fill="#035AE0"/>
<rect x="52.6553" y="338.647" width="3.1317" height="3.13172" transform="rotate(45 52.6553 338.647)" fill="#035AE0"/>
<rect x="52.6553" y="356.196" width="3.1317" height="3.13172" transform="rotate(45 52.6553 356.196)" fill="#035AE0"/>
<rect x="71.8756" y="303.549" width="3.1317" height="3.13172" transform="rotate(45 71.8756 303.549)" fill="#035AE0"/>
<rect x="71.8756" y="321.098" width="3.1317" height="3.13172" transform="rotate(45 71.8756 321.098)" fill="#035AE0"/>
<rect x="71.8756" y="338.647" width="3.1317" height="3.13172" transform="rotate(45 71.8756 338.647)" fill="#035AE0"/>
<rect x="71.8756" y="356.196" width="3.1317" height="3.13172" transform="rotate(45 71.8756 356.196)" fill="#035AE0"/>
<rect x="91.0961" y="303.549" width="3.1317" height="3.13172" transform="rotate(45 91.0961 303.549)" fill="#035AE0"/>
<rect x="91.0961" y="321.098" width="3.1317" height="3.13172" transform="rotate(45 91.0961 321.098)" fill="#035AE0"/>
<rect x="91.0961" y="338.647" width="3.1317" height="3.13172" transform="rotate(45 91.0961 338.647)" fill="#035AE0"/>
<rect x="91.0961" y="356.196" width="3.1317" height="3.13172" transform="rotate(45 91.0961 356.196)" fill="#035AE0"/>
<rect x="110.316" y="303.549" width="3.1317" height="3.13172" transform="rotate(45 110.316 303.549)" fill="#035AE0"/>
<rect x="110.316" y="321.098" width="3.1317" height="3.13172" transform="rotate(45 110.316 321.098)" fill="#035AE0"/>
<rect x="110.316" y="338.647" width="3.1317" height="3.13172" transform="rotate(45 110.316 338.647)" fill="#035AE0"/>
<rect x="110.316" y="356.196" width="3.1317" height="3.13172" transform="rotate(45 110.316 356.196)" fill="#035AE0"/>
</svg>
