<svg width="1920" height="623" viewBox="0 0 1920 623" fill="none" xmlns="http://www.w3.org/2000/svg">
<path d="M1921 546C1921 531.161 1918.08 516.467 1912.4 502.757C1906.72 489.047 1898.4 476.59 1887.9 466.097C1877.41 455.604 1864.95 447.28 1851.24 441.602C1837.53 435.923 1822.84 433 1808 433C1793.16 433 1778.47 435.923 1764.76 441.602C1751.05 447.28 1738.59 455.604 1728.1 466.097C1717.6 476.59 1709.28 489.047 1703.6 502.757C1697.92 516.467 1695 531.161 1695 546L1921 546Z" fill="#035AE0" fill-opacity="0.05"/>
<rect x="1760.21" y="118" width="3.1317" height="3.13172" transform="rotate(45 1760.21 118)" fill="#035AE0" fill-opacity="0.5"/>
<rect x="1779.43" y="118" width="3.1317" height="3.13172" transform="rotate(45 1779.43 118)" fill="#035AE0" fill-opacity="0.5"/>
<rect x="1798.66" y="118" width="3.1317" height="3.13172" transform="rotate(45 1798.66 118)" fill="#035AE0" fill-opacity="0.5"/>
<rect x="1817.88" y="118" width="3.1317" height="3.13172" transform="rotate(45 1817.88 118)" fill="#035AE0" fill-opacity="0.5"/>
<rect x="1837.1" y="118" width="3.1317" height="3.13172" transform="rotate(45 1837.1 118)" fill="#035AE0" fill-opacity="0.5"/>
<rect x="1856.32" y="118" width="3.1317" height="3.13172" transform="rotate(45 1856.32 118)" fill="#035AE0" fill-opacity="0.5"/>
<rect x="1760.21" y="135.549" width="3.1317" height="3.13172" transform="rotate(45 1760.21 135.549)" fill="#035AE0" fill-opacity="0.5"/>
<rect x="1760.21" y="153.098" width="3.1317" height="3.13172" transform="rotate(45 1760.21 153.098)" fill="#035AE0" fill-opacity="0.5"/>
<rect x="1760.21" y="170.647" width="3.1317" height="3.13172" transform="rotate(45 1760.21 170.647)" fill="#035AE0" fill-opacity="0.5"/>
<rect x="1760.21" y="188.196" width="3.1317" height="3.13172" transform="rotate(45 1760.21 188.196)" fill="#035AE0" fill-opacity="0.5"/>
<rect x="1779.43" y="135.549" width="3.1317" height="3.13172" transform="rotate(45 1779.43 135.549)" fill="#035AE0" fill-opacity="0.5"/>
<rect x="1779.43" y="153.098" width="3.1317" height="3.13172" transform="rotate(45 1779.43 153.098)" fill="#035AE0" fill-opacity="0.5"/>
<rect x="1779.43" y="170.647" width="3.1317" height="3.13172" transform="rotate(45 1779.43 170.647)" fill="#035AE0" fill-opacity="0.5"/>
<rect x="1779.43" y="188.196" width="3.1317" height="3.13172" transform="rotate(45 1779.43 188.196)" fill="#035AE0" fill-opacity="0.5"/>
<rect x="1798.66" y="135.549" width="3.1317" height="3.13172" transform="rotate(45 1798.66 135.549)" fill="#035AE0" fill-opacity="0.5"/>
<rect x="1798.66" y="153.098" width="3.1317" height="3.13172" transform="rotate(45 1798.66 153.098)" fill="#035AE0" fill-opacity="0.5"/>
<rect x="1798.66" y="170.647" width="3.1317" height="3.13172" transform="rotate(45 1798.66 170.647)" fill="#035AE0" fill-opacity="0.5"/>
<rect x="1798.66" y="188.196" width="3.1317" height="3.13172" transform="rotate(45 1798.66 188.196)" fill="#035AE0" fill-opacity="0.5"/>
<rect x="1817.88" y="135.549" width="3.1317" height="3.13172" transform="rotate(45 1817.88 135.549)" fill="#035AE0" fill-opacity="0.5"/>
<rect x="1817.88" y="153.098" width="3.1317" height="3.13172" transform="rotate(45 1817.88 153.098)" fill="#035AE0" fill-opacity="0.5"/>
<rect x="1817.88" y="170.647" width="3.1317" height="3.13172" transform="rotate(45 1817.88 170.647)" fill="#035AE0" fill-opacity="0.5"/>
<rect x="1817.88" y="188.196" width="3.1317" height="3.13172" transform="rotate(45 1817.88 188.196)" fill="#035AE0" fill-opacity="0.5"/>
<rect x="1837.1" y="135.549" width="3.1317" height="3.13172" transform="rotate(45 1837.1 135.549)" fill="#035AE0" fill-opacity="0.5"/>
<rect x="1837.1" y="153.098" width="3.1317" height="3.13172" transform="rotate(45 1837.1 153.098)" fill="#035AE0" fill-opacity="0.5"/>
<rect x="1837.1" y="170.647" width="3.1317" height="3.13172" transform="rotate(45 1837.1 170.647)" fill="#035AE0" fill-opacity="0.5"/>
<rect x="1837.1" y="188.196" width="3.1317" height="3.13172" transform="rotate(45 1837.1 188.196)" fill="#035AE0" fill-opacity="0.5"/>
<rect x="1856.32" y="135.549" width="3.1317" height="3.13172" transform="rotate(45 1856.32 135.549)" fill="#035AE0" fill-opacity="0.5"/>
<rect x="1856.32" y="153.098" width="3.1317" height="3.13172" transform="rotate(45 1856.32 153.098)" fill="#035AE0" fill-opacity="0.5"/>
<rect x="1856.32" y="170.647" width="3.1317" height="3.13172" transform="rotate(45 1856.32 170.647)" fill="#035AE0" fill-opacity="0.5"/>
<rect x="1856.32" y="188.196" width="3.1317" height="3.13172" transform="rotate(45 1856.32 188.196)" fill="#035AE0" fill-opacity="0.5"/>
<path d="M1523.25 115.067L1667.52 91.6033C1694.39 87.2337 1717.68 110.393 1713.46 137.284L1704.19 196.371C1699.86 223.999 1724.49 247.434 1751.86 241.73L1795.76 232.585C1824.01 226.699 1849.01 251.752 1843.06 279.989L1821.33 383.136" stroke="url(#paint0_linear_903_10118)" stroke-opacity="0.2"/>
<path d="M1519.67 118.554L1663.94 95.0901C1690.81 90.7206 1714.1 113.88 1709.88 140.771L1700.61 199.858C1696.27 227.486 1720.9 250.921 1748.28 245.217L1792.18 236.072C1820.43 230.186 1845.42 255.239 1839.48 283.476L1817.75 386.623" stroke="url(#paint1_linear_903_10118)" stroke-opacity="0.2"/>
<path d="M1516.08 122.04L1660.36 98.5769C1687.22 94.2074 1710.51 117.367 1706.29 144.258L1697.02 203.345C1692.69 230.973 1717.32 254.407 1744.7 248.703L1788.59 239.558C1816.84 233.673 1841.84 258.726 1835.89 286.963L1814.16 390.109" stroke="url(#paint2_linear_903_10118)" stroke-opacity="0.2"/>
<path d="M1512.5 125.527L1656.77 102.064C1683.64 97.6942 1706.93 120.854 1702.71 147.745L1693.44 206.831C1689.1 234.46 1713.74 257.894 1741.11 252.19L1785.01 243.045C1813.26 237.16 1838.26 262.213 1832.31 290.449L1810.58 393.596" stroke="url(#paint3_linear_903_10118)" stroke-opacity="0.2"/>
<path d="M1508.92 129.014L1653.19 105.551C1680.05 101.181 1703.34 124.341 1699.13 151.231L1689.86 210.318C1685.52 237.947 1710.15 261.381 1737.53 255.677L1781.43 246.532C1809.68 240.647 1834.67 265.699 1828.73 293.936L1807 397.083" stroke="url(#paint4_linear_903_10118)" stroke-opacity="0.2"/>
<path d="M1505.33 132.501L1649.6 109.038C1676.47 104.668 1699.76 127.828 1695.54 154.719L1686.27 213.806C1681.94 241.434 1706.57 264.868 1733.95 259.164L1777.84 250.019C1806.09 244.134 1831.09 269.187 1825.14 297.424L1803.41 400.57" stroke="url(#paint5_linear_903_10118)" stroke-opacity="0.2"/>
<path d="M1501.75 135.988L1646.02 112.525C1672.89 108.155 1696.18 131.315 1691.96 158.206L1682.69 217.292C1678.35 244.921 1702.99 268.355 1730.36 262.651L1774.26 253.506C1802.51 247.621 1827.51 272.674 1821.56 300.91L1799.83 404.057" stroke="url(#paint6_linear_903_10118)" stroke-opacity="0.2"/>
<path d="M1498.17 139.475L1642.44 116.011C1669.3 111.642 1692.59 134.802 1688.38 161.692L1679.11 220.779C1674.77 248.408 1699.4 271.842 1726.78 266.138L1770.68 256.993C1798.92 251.108 1823.92 276.16 1817.97 304.397L1796.25 407.544" stroke="url(#paint7_linear_903_10118)" stroke-opacity="0.2"/>
<path d="M1494.58 142.962L1638.85 119.498C1665.72 115.129 1689.01 138.288 1684.79 165.179L1675.52 224.266C1671.19 251.895 1695.82 275.329 1723.2 269.625L1767.09 260.48C1795.34 254.594 1820.34 279.647 1814.39 307.884L1792.66 411.031" stroke="url(#paint8_linear_903_10118)" stroke-opacity="0.2"/>
<path d="M1491 146.449L1635.27 122.985C1662.14 118.616 1685.43 141.775 1681.21 168.666L1671.94 227.753C1667.6 255.381 1692.23 278.816 1719.61 273.112L1763.51 263.967C1791.76 258.081 1816.76 283.134 1810.81 311.371L1789.08 414.518" stroke="url(#paint9_linear_903_10118)" stroke-opacity="0.2"/>
<path d="M-26.7482 304.067L117.522 280.603C144.389 276.234 167.679 299.393 163.46 326.284L154.19 385.371C149.855 412.999 174.486 436.434 201.865 430.73L245.76 421.585C274.01 415.699 299.007 440.752 293.059 468.989L271.332 572.136" stroke="url(#paint10_linear_903_10118)" stroke-opacity="0.2"/>
<path d="M-30.3318 307.554L113.939 284.09C140.805 279.721 164.095 302.88 159.876 329.771L150.606 388.858C146.272 416.486 170.903 439.921 198.281 434.217L242.176 425.072C270.426 419.186 295.424 444.239 289.476 472.476L267.748 575.623" stroke="url(#paint11_linear_903_10118)" stroke-opacity="0.2"/>
<path d="M-33.9153 311.04L110.355 287.577C137.222 283.207 160.512 306.367 156.293 333.258L147.023 392.345C142.688 419.973 167.319 443.407 194.698 437.703L238.593 428.558C266.842 422.673 291.84 447.726 285.892 475.963L264.164 579.109" stroke="url(#paint12_linear_903_10118)" stroke-opacity="0.2"/>
<path d="M-37.4988 314.527L106.772 291.064C133.638 286.694 156.928 309.854 152.709 336.745L143.439 395.831C139.105 423.46 163.736 446.894 191.114 441.19L235.009 432.045C263.259 426.16 288.256 451.213 282.308 479.449L260.581 582.596" stroke="url(#paint13_linear_903_10118)" stroke-opacity="0.2"/>
<path d="M-41.0823 318.014L103.188 294.551C130.055 290.181 153.345 313.341 149.126 340.231L139.856 399.318C135.521 426.947 160.152 450.381 187.531 444.677L231.426 435.532C259.675 429.647 284.673 454.699 278.725 482.936L256.997 586.083" stroke="url(#paint14_linear_903_10118)" stroke-opacity="0.2"/>
<path d="M-44.6659 321.501L99.6045 298.038C126.471 293.668 149.761 316.828 145.542 343.719L136.272 402.806C131.938 430.434 156.569 453.868 183.947 448.164L227.842 439.019C256.092 433.134 281.089 458.187 275.141 486.424L253.414 589.57" stroke="url(#paint15_linear_903_10118)" stroke-opacity="0.2"/>
<path d="M-48.2494 324.988L96.0209 301.525C122.888 297.155 146.177 320.315 141.959 347.206L132.689 406.292C128.354 433.921 152.985 457.355 180.364 451.651L224.258 442.506C252.508 436.621 277.506 461.674 271.558 489.91L249.83 593.057" stroke="url(#paint16_linear_903_10118)" stroke-opacity="0.2"/>
<path d="M-51.8329 328.475L92.4374 305.011C119.304 300.642 142.594 323.802 138.375 350.692L129.105 409.779C124.771 437.408 149.402 460.842 176.78 455.138L220.675 445.993C248.925 440.108 273.922 465.16 267.974 493.397L246.247 596.544" stroke="url(#paint17_linear_903_10118)" stroke-opacity="0.2"/>
<path d="M-55.4165 331.962L88.8539 308.498C115.721 304.129 139.01 327.288 134.792 354.179L125.522 413.266C121.187 440.895 145.818 464.329 173.197 458.625L217.091 449.48C245.341 443.594 270.339 468.647 264.391 496.884L242.663 600.031" stroke="url(#paint18_linear_903_10118)" stroke-opacity="0.2"/>
<path d="M-59 335.449L85.2704 311.985C112.137 307.616 135.427 330.775 131.208 357.666L121.938 416.753C117.604 444.381 142.234 467.816 169.613 462.112L213.508 452.967C241.758 447.081 266.755 472.134 260.807 500.371L239.08 603.518" stroke="url(#paint19_linear_903_10118)" stroke-opacity="0.2"/>
<path d="M0 51C-1.2973e-06 65.8394 2.92283 80.5334 8.60161 94.2432C14.2804 107.953 22.6039 120.41 33.0969 130.903C43.5899 141.396 56.047 149.72 69.7568 155.398C83.4666 161.077 98.1606 164 113 164C127.839 164 142.533 161.077 156.243 155.398C169.953 149.72 182.41 141.396 192.903 130.903C203.396 120.41 211.72 107.953 217.398 94.2432C223.077 80.5334 226 65.8394 226 51L0 51Z" fill="#035AE0" fill-opacity="0.05"/>
<defs>
<linearGradient id="paint0_linear_903_10118" x1="1582.38" y1="57.5334" x2="1861.33" y2="344.216" gradientUnits="userSpaceOnUse">
<stop stop-color="#035AE0" stop-opacity="0"/>
<stop offset="0.479167" stop-color="#035AE0"/>
<stop offset="1" stop-color="#035AE0" stop-opacity="0"/>
</linearGradient>
<linearGradient id="paint1_linear_903_10118" x1="1578.8" y1="61.0202" x2="1857.75" y2="347.703" gradientUnits="userSpaceOnUse">
<stop stop-color="#035AE0" stop-opacity="0"/>
<stop offset="0.479167" stop-color="#035AE0"/>
<stop offset="1" stop-color="#035AE0" stop-opacity="0"/>
</linearGradient>
<linearGradient id="paint2_linear_903_10118" x1="1575.21" y1="64.5071" x2="1854.16" y2="351.19" gradientUnits="userSpaceOnUse">
<stop stop-color="#035AE0" stop-opacity="0"/>
<stop offset="0.479167" stop-color="#035AE0"/>
<stop offset="1" stop-color="#035AE0" stop-opacity="0"/>
</linearGradient>
<linearGradient id="paint3_linear_903_10118" x1="1571.63" y1="67.9939" x2="1850.58" y2="354.676" gradientUnits="userSpaceOnUse">
<stop stop-color="#035AE0" stop-opacity="0"/>
<stop offset="0.479167" stop-color="#035AE0"/>
<stop offset="1" stop-color="#035AE0" stop-opacity="0"/>
</linearGradient>
<linearGradient id="paint4_linear_903_10118" x1="1568.05" y1="71.4807" x2="1847" y2="358.163" gradientUnits="userSpaceOnUse">
<stop stop-color="#035AE0" stop-opacity="0"/>
<stop offset="0.479167" stop-color="#035AE0"/>
<stop offset="1" stop-color="#035AE0" stop-opacity="0"/>
</linearGradient>
<linearGradient id="paint5_linear_903_10118" x1="1564.46" y1="74.968" x2="1843.41" y2="361.651" gradientUnits="userSpaceOnUse">
<stop stop-color="#035AE0" stop-opacity="0"/>
<stop offset="0.479167" stop-color="#035AE0"/>
<stop offset="1" stop-color="#035AE0" stop-opacity="0"/>
</linearGradient>
<linearGradient id="paint6_linear_903_10118" x1="1560.88" y1="78.4548" x2="1839.83" y2="365.137" gradientUnits="userSpaceOnUse">
<stop stop-color="#035AE0" stop-opacity="0"/>
<stop offset="0.479167" stop-color="#035AE0"/>
<stop offset="1" stop-color="#035AE0" stop-opacity="0"/>
</linearGradient>
<linearGradient id="paint7_linear_903_10118" x1="1557.3" y1="81.9416" x2="1836.25" y2="368.624" gradientUnits="userSpaceOnUse">
<stop stop-color="#035AE0" stop-opacity="0"/>
<stop offset="0.479167" stop-color="#035AE0"/>
<stop offset="1" stop-color="#035AE0" stop-opacity="0"/>
</linearGradient>
<linearGradient id="paint8_linear_903_10118" x1="1553.71" y1="85.4285" x2="1832.66" y2="372.111" gradientUnits="userSpaceOnUse">
<stop stop-color="#035AE0" stop-opacity="0"/>
<stop offset="0.479167" stop-color="#035AE0"/>
<stop offset="1" stop-color="#035AE0" stop-opacity="0"/>
</linearGradient>
<linearGradient id="paint9_linear_903_10118" x1="1550.13" y1="88.9153" x2="1829.08" y2="375.598" gradientUnits="userSpaceOnUse">
<stop stop-color="#035AE0" stop-opacity="0"/>
<stop offset="0.479167" stop-color="#035AE0"/>
<stop offset="1" stop-color="#035AE0" stop-opacity="0"/>
</linearGradient>
<linearGradient id="paint10_linear_903_10118" x1="32.3801" y1="246.533" x2="311.33" y2="533.216" gradientUnits="userSpaceOnUse">
<stop stop-color="#035AE0" stop-opacity="0"/>
<stop offset="0.479167" stop-color="#035AE0"/>
<stop offset="1" stop-color="#035AE0" stop-opacity="0"/>
</linearGradient>
<linearGradient id="paint11_linear_903_10118" x1="28.7965" y1="250.02" x2="307.746" y2="536.703" gradientUnits="userSpaceOnUse">
<stop stop-color="#035AE0" stop-opacity="0"/>
<stop offset="0.479167" stop-color="#035AE0"/>
<stop offset="1" stop-color="#035AE0" stop-opacity="0"/>
</linearGradient>
<linearGradient id="paint12_linear_903_10118" x1="25.213" y1="253.507" x2="304.163" y2="540.19" gradientUnits="userSpaceOnUse">
<stop stop-color="#035AE0" stop-opacity="0"/>
<stop offset="0.479167" stop-color="#035AE0"/>
<stop offset="1" stop-color="#035AE0" stop-opacity="0"/>
</linearGradient>
<linearGradient id="paint13_linear_903_10118" x1="21.6295" y1="256.994" x2="300.579" y2="543.676" gradientUnits="userSpaceOnUse">
<stop stop-color="#035AE0" stop-opacity="0"/>
<stop offset="0.479167" stop-color="#035AE0"/>
<stop offset="1" stop-color="#035AE0" stop-opacity="0"/>
</linearGradient>
<linearGradient id="paint14_linear_903_10118" x1="18.046" y1="260.481" x2="296.996" y2="547.163" gradientUnits="userSpaceOnUse">
<stop stop-color="#035AE0" stop-opacity="0"/>
<stop offset="0.479167" stop-color="#035AE0"/>
<stop offset="1" stop-color="#035AE0" stop-opacity="0"/>
</linearGradient>
<linearGradient id="paint15_linear_903_10118" x1="14.4624" y1="263.968" x2="293.412" y2="550.651" gradientUnits="userSpaceOnUse">
<stop stop-color="#035AE0" stop-opacity="0"/>
<stop offset="0.479167" stop-color="#035AE0"/>
<stop offset="1" stop-color="#035AE0" stop-opacity="0"/>
</linearGradient>
<linearGradient id="paint16_linear_903_10118" x1="10.8789" y1="267.455" x2="289.829" y2="554.137" gradientUnits="userSpaceOnUse">
<stop stop-color="#035AE0" stop-opacity="0"/>
<stop offset="0.479167" stop-color="#035AE0"/>
<stop offset="1" stop-color="#035AE0" stop-opacity="0"/>
</linearGradient>
<linearGradient id="paint17_linear_903_10118" x1="7.29536" y1="270.942" x2="286.245" y2="557.624" gradientUnits="userSpaceOnUse">
<stop stop-color="#035AE0" stop-opacity="0"/>
<stop offset="0.479167" stop-color="#035AE0"/>
<stop offset="1" stop-color="#035AE0" stop-opacity="0"/>
</linearGradient>
<linearGradient id="paint18_linear_903_10118" x1="3.7118" y1="274.428" x2="282.662" y2="561.111" gradientUnits="userSpaceOnUse">
<stop stop-color="#035AE0" stop-opacity="0"/>
<stop offset="0.479167" stop-color="#035AE0"/>
<stop offset="1" stop-color="#035AE0" stop-opacity="0"/>
</linearGradient>
<linearGradient id="paint19_linear_903_10118" x1="0.128304" y1="277.915" x2="279.078" y2="564.598" gradientUnits="userSpaceOnUse">
<stop stop-color="#035AE0" stop-opacity="0"/>
<stop offset="0.479167" stop-color="#035AE0"/>
<stop offset="1" stop-color="#035AE0" stop-opacity="0"/>
</linearGradient>
</defs>
</svg>
