<svg width="140" height="179" viewBox="0 0 140 179" fill="none" xmlns="http://www.w3.org/2000/svg">
<path d="M69.1147 4.86355C68.3136 1.94735 65.2934 0.216788 62.4305 1.19128C51.7025 4.84293 41.7326 10.4663 33.041 17.7879C22.9513 26.2872 14.8242 36.8729 9.21968 48.8156C3.61513 60.7584 0.666382 73.7742 0.576581 86.9663C0.486796 100.158 3.2581 113.213 8.69956 125.231C14.141 137.249 22.1233 147.944 32.0963 156.58C42.0693 165.216 53.7961 171.587 66.4685 175.254C79.1409 178.922 92.4578 179.798 105.502 177.823C116.738 176.122 127.541 172.339 137.363 166.686C139.984 165.178 140.676 161.766 139.013 159.241C137.35 156.715 133.963 156.033 131.329 157.52C122.839 162.314 113.533 165.53 103.862 166.995C92.3835 168.733 80.6647 167.962 69.5129 164.734C58.3612 161.507 48.0416 155.901 39.2654 148.301C30.4891 140.702 23.4647 131.29 18.6762 120.714C13.8878 110.138 11.449 98.6499 11.528 87.0408C11.607 75.4318 14.202 63.9779 19.1339 53.4683C24.0659 42.9587 31.2178 33.6432 40.0967 26.1639C47.5773 19.8624 56.1339 14.9904 65.3383 11.7731C68.1932 10.7752 69.9157 7.77975 69.1147 4.86355Z" fill="#035AE0"/>
</svg>
