<svg width="1920" height="519" viewBox="0 0 1920 519" fill="none" xmlns="http://www.w3.org/2000/svg">
<circle cx="1445.04" cy="315.146" r="3.5" fill="#035AE0"/>
<ellipse cx="718" cy="446" rx="4" ry="4" fill="#E43CB5"/>
<circle cx="233.5" cy="32.5" r="3.5" fill="#035AE0"/>
<path fill-rule="evenodd" clip-rule="evenodd" d="M1856.36 45.7884C1861.57 45.7499 1865.78 41.5205 1865.79 36.3046C1865.8 41.4465 1869.89 45.6297 1875 45.7842L1875 45.7925C1869.98 45.9444 1865.94 49.9835 1865.79 55C1865.79 55.0001 1865.79 55.0002 1865.78 55.0003C1865.63 49.9101 1861.47 45.8261 1856.36 45.7884ZM1856.21 45.7884C1856.14 45.7878 1856.07 45.7865 1856 45.7844C1856 45.787 1856 45.7896 1856 45.7923C1856.07 45.7902 1856.14 45.7889 1856.21 45.7884ZM1865.79 36.0005C1865.79 36.0881 1865.79 36.1761 1865.79 36.2643C1865.79 36.176 1865.79 36.088 1865.78 36.0003L1865.79 36.0005Z" fill="#FF953E"/>
<circle cx="1683.5" cy="94.5" r="5.5" fill="#035AE0"/>
<circle cx="203" cy="393" r="6" fill="#FFBB38"/>
<path d="M-14 199.756C-14 199.756 134.365 384.602 278.077 384.602C604.01 384.602 664.147 90.6641 961.534 90.6641C1239.97 90.6641 1468.11 368.746 1617.18 368.746C1766.25 368.746 1932 167.627 1932 167.627" stroke="#035AE0" stroke-opacity="0.05" stroke-width="2"/>
<path d="M-14 208.101C-14 208.101 134.365 392.947 278.077 392.947C604.01 392.947 669.721 100.737 967.108 100.737C1245.54 100.737 1468.11 377.091 1617.18 377.091C1766.25 377.091 1932 175.973 1932 175.973" stroke="#035AE0" stroke-opacity="0.05" stroke-width="2"/>
<path d="M-14 216.445C-14 216.445 134.365 401.291 278.077 401.291C604.01 401.291 674.282 111.313 971.669 111.313C1250.1 111.313 1468.11 385.436 1617.18 385.436C1766.25 385.436 1932 184.317 1932 184.317" stroke="#035AE0" stroke-opacity="0.05" stroke-width="2"/>
<path d="M-14 224.792C-14 224.792 134.365 409.637 278.077 409.637C604.01 409.637 674.789 119.876 972.176 119.876C1250.61 119.876 1468.11 393.782 1617.18 393.782C1766.25 393.782 1932 192.663 1932 192.663" stroke="#035AE0" stroke-opacity="0.05" stroke-width="2"/>
<path d="M-14 233.135C-14 233.135 134.365 417.981 278.077 417.981C604.01 417.981 676.309 127.934 973.696 127.934C1252.13 127.934 1468.11 402.125 1617.18 402.125C1766.25 402.125 1932 201.007 1932 201.007" stroke="#035AE0" stroke-opacity="0.05" stroke-width="2"/>
<path d="M-14 241.481C-14 241.481 134.365 426.327 278.077 426.327C604.01 426.327 679.857 135.992 977.244 135.992C1255.68 135.992 1468.11 410.471 1617.18 410.471C1766.25 410.471 1932 209.353 1932 209.353" stroke="#035AE0" stroke-opacity="0.05" stroke-width="2"/>
<path d="M-14 249.826C-14 249.826 134.365 434.672 278.077 434.672C604.01 434.672 684.925 143.547 982.311 143.547C1260.74 143.547 1468.11 418.816 1617.18 418.816C1766.25 418.816 1932 217.697 1932 217.697" stroke="#035AE0" stroke-opacity="0.05" stroke-width="2"/>
<path d="M-14 258.171C-14 258.171 134.365 443.017 278.077 443.017C604.01 443.017 680.87 153.116 978.257 153.116C1256.69 153.116 1468.11 427.161 1617.18 427.161C1766.25 427.161 1932 226.042 1932 226.042" stroke="#035AE0" stroke-opacity="0.05" stroke-width="2"/>
<path d="M-14 266.516C-14 266.516 134.365 451.362 278.077 451.362C604.01 451.362 680.364 160.167 977.751 160.167C1256.18 160.167 1468.11 435.506 1617.18 435.506C1766.25 435.506 1932 234.387 1932 234.387" stroke="#035AE0" stroke-opacity="0.05" stroke-width="2"/>
<path d="M-14 274.861C-14 274.861 134.365 459.706 278.077 459.706C604.01 459.706 680.87 169.232 978.257 169.232C1256.69 169.232 1468.11 443.851 1617.18 443.851C1766.25 443.851 1932 242.732 1932 242.732" stroke="#035AE0" stroke-opacity="0.05" stroke-width="2"/>
<path d="M-393.044 365.099C-393.044 365.099 -186.729 106.459 13.1153 106.459C466.355 106.459 549.98 517.742 963.524 517.742C1350.71 517.742 1667.97 128.645 1875.26 128.645C2082.56 128.645 2313.04 410.054 2313.04 410.054" stroke="#035AE0" stroke-opacity="0.05" stroke-width="2"/>
<path d="M-393.044 353.422C-393.044 353.422 -186.729 94.7824 13.1153 94.7824C466.355 94.7824 557.732 503.647 971.275 503.647C1358.46 503.647 1667.97 116.968 1875.26 116.968C2082.56 116.968 2313.04 398.377 2313.04 398.377" stroke="#035AE0" stroke-opacity="0.05" stroke-width="2"/>
<path d="M-393.044 341.746C-393.044 341.746 -186.729 83.1066 13.1153 83.1066C466.355 83.1066 564.075 488.849 977.618 488.849C1364.8 488.849 1667.97 105.292 1875.26 105.292C2082.56 105.292 2313.04 386.701 2313.04 386.701" stroke="#035AE0" stroke-opacity="0.05" stroke-width="2"/>
<path d="M-393.044 330.069C-393.044 330.069 -186.729 71.4299 13.1153 71.4299C466.355 71.4299 564.779 476.869 978.322 476.869C1365.51 476.869 1667.97 93.6154 1875.26 93.6154C2082.56 93.6154 2313.04 375.024 2313.04 375.024" stroke="#035AE0" stroke-opacity="0.05" stroke-width="2"/>
<path d="M-393.044 318.393C-393.044 318.393 -186.729 59.7539 13.1153 59.7539C466.355 59.7539 566.893 465.594 980.437 465.594C1367.62 465.594 1667.97 81.9395 1875.26 81.9395C2082.56 81.9395 2313.04 363.349 2313.04 363.349" stroke="#035AE0" stroke-opacity="0.05" stroke-width="2"/>
<path d="M-393.044 306.716C-393.044 306.716 -186.729 48.0767 13.1153 48.0767C466.355 48.0767 571.826 454.318 985.37 454.318C1372.56 454.318 1667.97 70.2622 1875.26 70.2622C2082.56 70.2622 2313.04 351.671 2313.04 351.671" stroke="#035AE0" stroke-opacity="0.05" stroke-width="2"/>
<path d="M-393.044 295.041C-393.044 295.041 -186.729 36.4011 13.1153 36.4011C466.355 36.4011 578.873 443.748 992.417 443.748C1379.6 443.748 1667.97 58.5867 1875.26 58.5867C2082.56 58.5867 2313.04 339.996 2313.04 339.996" stroke="#035AE0" stroke-opacity="0.05" stroke-width="2"/>
<path d="M-393.044 283.363C-393.044 283.363 -186.729 24.7234 13.1153 24.7234C466.355 24.7234 573.236 430.357 986.779 430.357C1373.97 430.357 1667.97 46.909 1875.26 46.909C2082.56 46.909 2313.04 328.318 2313.04 328.318" stroke="#035AE0" stroke-opacity="0.05" stroke-width="2"/>
<path d="M-393.044 271.687C-393.044 271.687 -186.729 13.0476 13.1153 13.0476C466.355 13.0476 572.531 420.492 986.074 420.492C1373.26 420.492 1667.97 35.2331 1875.26 35.2331C2082.56 35.2331 2313.04 316.642 2313.04 316.642" stroke="#035AE0" stroke-opacity="0.05" stroke-width="2"/>
<path d="M-393.044 260.011C-393.044 260.011 -186.729 1.37116 13.1153 1.37116C466.355 1.37116 573.236 407.808 986.779 407.808C1373.97 407.808 1667.97 23.5567 1875.26 23.5567C2082.56 23.5567 2313.04 304.966 2313.04 304.966" stroke="#035AE0" stroke-opacity="0.05" stroke-width="2"/>
</svg>
