<svg width="1920" height="910" viewBox="0 0 1920 910" fill="none" xmlns="http://www.w3.org/2000/svg">
<path d="M2015 -104L1538.28 365.338C1502.7 400.371 1458.91 425.988 1410.93 439.827L-28.5 855M2015.3 -104L1565.06 388.908C1530.77 426.446 1487.51 454.654 1439.33 470.883L146.218 906.456M2014.91 -104L1589.93 410.268C1557.36 449.677 1515.26 480.11 1467.63 498.678L415 909M2014.65 -104L1608.68 424.718C1577.33 465.54 1536.01 497.612 1488.69 517.849L574 909M2014.73 -104L1627.73 439.969C1598.25 481.395 1558.3 514.862 1512.45 536.828C1089.93 739.246 1218.84 677.708 736 909M2014.64 -103.898L1493.04 312.948C1453.38 344.642 1406.33 365.754 1356.29 374.305L-2.49995 606.5M2014.44 -103.337L1479.11 295.537C1438.35 325.914 1390.53 345.432 1340.14 352.257L-12 535.444M2015.08 -104.173L1513.39 337.092C1475.47 370.439 1429.75 393.678 1380.47 404.654L-8.49998 714" stroke="url(#paint0_linear_989_16342)" stroke-opacity="0.2" stroke-width="2"/>
<defs>
<linearGradient id="paint0_linear_989_16342" x1="1029.42" y1="-159.615" x2="977.159" y2="769.442" gradientUnits="userSpaceOnUse">
<stop stop-color="#035AE0"/>
<stop offset="1" stop-color="#035AE0" stop-opacity="0"/>
</linearGradient>
</defs>
</svg>
